<?xml version="1.0" encoding="utf-8"?>
<!-- Generator: Adobe Illustrator 17.0.0, SVG Export Plug-In . SVG Version: 6.00 Build 0)  -->
<!DOCTYPE svg PUBLIC "-//W3C//DTD SVG 1.1//EN" "http://www.w3.org/Graphics/SVG/1.1/DTD/svg11.dtd">
<svg version="1.1" id="Layer_1" xmlns="http://www.w3.org/2000/svg" xmlns:xlink="http://www.w3.org/1999/xlink" x="0px" y="0px"
	 width="141px" height="147.409px" viewBox="0 0 141 147.409" enable-background="new 0 0 141 147.409" xml:space="preserve">
<g>
	<g>
		<path fill="#D2A055" d="M103.638,60.215c0,15.269-12.378,27.646-27.646,27.646S48.345,75.484,48.345,60.215
			s12.378-27.646,27.646-27.646S103.638,44.946,103.638,60.215"/>
	</g>
	<g>
		<path fill="#06162F" d="M84.568,127.869H56.453c-4.062,0-7.426-3.177-7.659-7.232c-1.056-18.393-9.525-28.981-10.487-30.128
			c-3.106-3.702-5.53-7.867-7.203-12.378c-1.732-4.67-2.611-9.585-2.611-14.608c0-5.696,1.121-11.222,3.333-16.424
			c2.135-5.023,5.19-9.527,9.079-13.388c3.888-3.86,8.413-6.881,13.45-8.98c5.219-2.174,10.758-3.256,16.456-3.214
			c5.661,0.041,11.155,1.202,16.329,3.451c4.988,2.168,9.462,5.248,13.297,9.154c3.837,3.908,6.836,8.441,8.914,13.473
			c2.155,5.218,3.216,10.736,3.153,16.401c-0.054,4.875-0.937,9.647-2.625,14.181c-1.632,4.385-3.976,8.445-6.966,12.068
			c-1.215,1.473-3.394,1.681-4.866,0.466c-1.473-1.215-1.681-3.394-0.466-4.866c5.077-6.152,7.922-13.939,8.01-21.925
			c0.103-9.361-3.479-18.224-10.087-24.954C88.9,32.239,80.113,28.498,70.761,28.43c-0.087-0.001-0.175-0.001-0.263-0.001
			c-9.328,0-18.098,3.612-24.722,10.188c-6.687,6.639-10.37,15.484-10.37,24.906c0,8.238,2.911,16.244,8.197,22.543
			c1.164,1.388,4.173,5.319,6.957,11.841c2.955,6.922,4.683,14.436,5.136,22.334c0.023,0.401,0.355,0.715,0.757,0.715h28.115
			c0.402,0,0.735-0.312,0.757-0.709c0.124-2.251,0.353-4.497,0.68-6.674c0.284-1.888,2.045-3.189,3.932-2.905
			c1.888,0.284,3.188,2.044,2.905,3.932c-0.295,1.964-0.501,3.992-0.614,6.027C92.004,124.688,88.64,127.869,84.568,127.869z"/>
	</g>
	<g>
		<path fill="#06162F" d="M71.002,76.918c-0.885,0-1.769-0.337-2.444-1.012l-3.531-3.531l-3.531,3.531
			c-1.35,1.35-3.538,1.35-4.889,0l-5.975-5.975c-1.35-1.35-1.35-3.539,0-4.889c1.35-1.35,3.539-1.35,4.889,0l3.531,3.531
			l3.531-3.531c1.35-1.35,3.539-1.35,4.889,0l3.531,3.531l3.531-3.531c1.35-1.35,3.539-1.35,4.889,0l3.531,3.531l3.531-3.531
			c1.35-1.35,3.539-1.35,4.889,0c1.35,1.35,1.35,3.539,0,4.889l-5.975,5.975c-1.35,1.35-3.539,1.35-4.889,0l-3.531-3.531
			l-3.531,3.531C72.771,76.58,71.887,76.918,71.002,76.918z"/>
	</g>
	<g>
		<path fill="#06162F" d="M71.002,144.51c-3.723,0-7.422-0.912-10.696-2.638c-3.166-1.669-5.94-4.094-8.021-7.014
			c-1.108-1.555-0.746-3.713,0.809-4.821c1.555-1.108,3.713-0.746,4.821,0.809c3.013,4.227,7.905,6.751,13.087,6.751
			c5.182,0,10.075-2.524,13.088-6.751c1.108-1.555,3.266-1.917,4.821-0.809c1.555,1.108,1.917,3.266,0.809,4.821
			c-2.081,2.92-4.855,5.346-8.021,7.014C78.424,143.597,74.725,144.51,71.002,144.51z"/>
	</g>
	<g>
		<path fill="#06162F" d="M71.002,16.386c-1.909,0-3.457-1.548-3.457-3.457V6.356c0-1.909,1.548-3.457,3.457-3.457
			c1.909,0,3.457,1.548,3.457,3.457v6.573C74.459,14.838,72.911,16.386,71.002,16.386z"/>
	</g>
	<g>
		<path fill="#06162F" d="M34.212,29.982c-0.885,0-1.769-0.337-2.444-1.012l-4.648-4.648c-1.35-1.35-1.35-3.539,0-4.889
			c1.35-1.35,3.539-1.35,4.889,0l4.648,4.648c1.35,1.35,1.35,3.539,0,4.889C35.982,29.644,35.097,29.982,34.212,29.982z"/>
	</g>
	<g>
		<path fill="#06162F" d="M19.907,66.477h-6.573c-1.909,0-3.457-1.548-3.457-3.457c0-1.909,1.548-3.457,3.457-3.457h6.573
			c1.909,0,3.457,1.548,3.457,3.457C23.363,64.93,21.816,66.477,19.907,66.477z"/>
	</g>
	<g>
		<path fill="#06162F" d="M28.826,107.981c-0.885,0-1.769-0.337-2.444-1.012c-1.35-1.35-1.35-3.539,0-4.889l4.648-4.648
			c1.35-1.35,3.539-1.35,4.889,0c1.35,1.35,1.35,3.539,0,4.889l-4.648,4.648C30.595,107.644,29.711,107.981,28.826,107.981z"/>
	</g>
	<g>
		<path fill="#06162F" d="M107.498,30.692c-0.885,0-1.769-0.337-2.444-1.012c-1.35-1.35-1.35-3.539,0-4.889l4.648-4.648
			c1.35-1.35,3.539-1.35,4.889,0c1.35,1.35,1.35,3.539,0,4.889l-4.648,4.648C109.267,30.354,108.383,30.692,107.498,30.692z"/>
	</g>
	<g>
		<path fill="#06162F" d="M127.667,67.482h-6.573c-1.909,0-3.457-1.548-3.457-3.457c0-1.909,1.548-3.457,3.457-3.457h6.573
			c1.909,0,3.457,1.548,3.457,3.457C131.123,65.934,129.576,67.482,127.667,67.482z"/>
	</g>
	<g>
		<path fill="#06162F" d="M111.502,108.598c-0.885,0-1.769-0.337-2.444-1.012l-4.648-4.648c-1.35-1.35-1.35-3.539,0-4.889
			c1.35-1.35,3.539-1.35,4.889,0l4.648,4.648c1.35,1.35,1.35,3.539,0,4.889C113.272,108.261,112.387,108.598,111.502,108.598z"/>
	</g>
</g>
</svg>
