<?xml version="1.0" encoding="utf-8"?>
<!-- Generator: Adobe Illustrator 17.0.0, SVG Export Plug-In . SVG Version: 6.00 Build 0)  -->
<!DOCTYPE svg PUBLIC "-//W3C//DTD SVG 1.1//EN" "http://www.w3.org/Graphics/SVG/1.1/DTD/svg11.dtd">
<svg version="1.1" id="Layer_1" xmlns="http://www.w3.org/2000/svg" xmlns:xlink="http://www.w3.org/1999/xlink" x="0px" y="0px"
	 width="141px" height="147.409px" viewBox="0 0 141 147.409" enable-background="new 0 0 141 147.409" xml:space="preserve">
<g>
	<g>
		<path fill="#D2A055" d="M100.467,86.075c0,17.707-14.355,32.062-32.062,32.062c-17.707,0-32.062-14.355-32.062-32.062
			c0-17.707,14.355-32.062,32.062-32.062C86.113,54.013,100.467,68.367,100.467,86.075"/>
	</g>
	<g>
		<path fill="#06162F" d="M74.843,142.254c-7.636,0-15.069-1.267-22.093-3.765c-7.327-2.606-13.865-6.438-19.432-11.388
			c-5.954-5.295-10.606-11.712-13.825-19.074c-3.446-7.88-5.194-16.742-5.194-26.339V19.296c0-2.378,1.928-4.305,4.305-4.305
			s4.305,1.928,4.305,4.305v62.392c0,35.696,26.92,51.955,51.933,51.955s51.933-16.258,51.933-51.955
			c0-10.518-2.964-18.973-7.747-25.485v25.485c0,13.735-4.685,25.214-13.547,33.194c-7.781,7.006-18.355,10.865-29.772,10.865
			c-5.664,0-11.22-0.943-16.513-2.804c-5.488-1.929-10.408-4.748-14.624-8.379c-4.515-3.888-8.05-8.568-10.508-13.911
			c-2.636-5.729-3.972-12.11-3.972-18.966c0-8.101,1.526-15.586,4.536-22.246C37.44,53.221,41.5,47.8,46.696,43.33
			c4.843-4.167,10.526-7.39,16.892-9.581c6.09-2.096,12.534-3.159,19.152-3.159s13.061,1.063,19.152,3.159
			c3,1.032,5.848,2.294,8.528,3.776V19.296c0-2.378,1.928-4.305,4.305-4.305c2.378,0,4.305,1.928,4.305,4.305v24.247
			c5.077,4.429,9.053,9.777,11.821,15.9c3.01,6.66,4.536,14.145,4.536,22.246c0,9.597-1.747,18.459-5.194,26.339
			c-3.219,7.361-7.871,13.779-13.825,19.074c-5.567,4.95-12.105,8.782-19.432,11.388C89.912,140.987,82.478,142.254,74.843,142.254z
			 M82.739,39.2c-21.209,0-44.037,13.296-44.037,42.489c0,23.272,18.617,35.449,37.008,35.449c9.286,0,17.813-3.073,24.011-8.654
			c6.999-6.302,10.698-15.568,10.698-26.795V47.722C102.397,41.958,92.4,39.2,82.739,39.2z"/>
	</g>
	<g>
		<path fill="#06162F" d="M17.296,26.06c-0.679,0-1.23-0.551-1.23-1.23v-7.993c0-5.085-4.137-9.222-9.222-9.222
			c-0.679,0-1.23-0.551-1.23-1.23s0.551-1.23,1.23-1.23c6.442,0,11.683,5.241,11.683,11.683v7.993
			C18.526,25.509,17.976,26.06,17.296,26.06z"/>
	</g>
	<g>
		<path fill="#06162F" d="M19.429,26.06c-0.679,0-1.23-0.551-1.23-1.23v-7.993c0-6.442,5.241-11.683,11.683-11.683
			c0.679,0,1.23,0.551,1.23,1.23s-0.551,1.23-1.23,1.23c-5.085,0-9.222,4.137-9.222,9.222v7.993
			C20.659,25.509,20.109,26.06,19.429,26.06z"/>
	</g>
	<g>
		<path fill="#06162F" d="M113.456,26.06c-0.679,0-1.23-0.551-1.23-1.23v-7.993c0-5.085-4.137-9.222-9.222-9.222
			c-0.679,0-1.23-0.551-1.23-1.23s0.551-1.23,1.23-1.23c6.442,0,11.682,5.241,11.682,11.683v7.993
			C114.686,25.509,114.135,26.06,113.456,26.06z"/>
	</g>
	<g>
		<path fill="#06162F" d="M115.589,26.06c-0.679,0-1.23-0.551-1.23-1.23v-7.993c0-6.442,5.241-11.683,11.682-11.683
			c0.679,0,1.23,0.551,1.23,1.23s-0.551,1.23-1.23,1.23c-5.085,0-9.222,4.137-9.222,9.222v7.993
			C116.819,25.509,116.268,26.06,115.589,26.06z"/>
	</g>
</g>
</svg>
