<?xml version="1.0" encoding="utf-8"?>
<!-- Generator: Adobe Illustrator 17.0.0, SVG Export Plug-In . SVG Version: 6.00 Build 0)  -->
<!DOCTYPE svg PUBLIC "-//W3C//DTD SVG 1.1//EN" "http://www.w3.org/Graphics/SVG/1.1/DTD/svg11.dtd">
<svg version="1.1" id="Layer_1" xmlns="http://www.w3.org/2000/svg" xmlns:xlink="http://www.w3.org/1999/xlink" x="0px" y="0px"
	 width="364.115px" height="243.836px" viewBox="0 0 364.115 243.836" enable-background="new 0 0 364.115 243.836"
	 xml:space="preserve">
<g>
	<path fill="#F2F2F2" d="M354.578,168.215c3.725-12.073,4.595-24.92,1.925-37.269c-4.178-19.319-17.638-42.708-56.479-52.8
		C226.49,59.039,200.957,3.163,132.172,20.957c0,0-36.914,6.708-54.384,67.789c-17.471,61.081-85.925,62.12-62.355,115.304
		c3.852,8.693,14.225,18.175,29.118,27.132l278.949-0.937C342.777,207.067,348.776,187.017,354.578,168.215z"/>
	<path fill="#D6D7F4" d="M288.757,124.534h-10.466v-11.449c0-5.747-4.004-10.549-9.371-11.797v-14.21h-3.852v13.94
		c-6.178,0.557-11.022,5.743-11.022,12.067v11.786h-10.411v13.133h-0.701v24.407l-18.924-0.136v-29.171h-21.683v21.378h-15.213
		v20.767h-18.387v54.972h61.086v-0.008h13.121v0.008h76.598V160.9H288.73L288.757,124.534z"/>
	<polygon fill="#D6D7F4" points="72.797,154.748 72.797,127.42 83.041,127.42 83.041,112.804 86.893,112.804 86.893,127.42 
		96.331,127.42 96.331,154.748 106.921,154.748 106.921,171.12 123.796,171.12 123.796,115.348 159.029,115.348 159.029,230.221 
		136.07,230.221 126.179,230.221 101.291,230.221 89.797,230.221 59.764,230.221 59.764,154.748 	"/>
	<path fill="#3D5AC4" d="M265.283,229.943L104.7,230.069c-6.082,0.005-11.016-4.922-11.021-11.004l0,0l182.607-0.143l0,0
		C276.291,225.004,271.364,229.939,265.283,229.943z"/>
	<path fill="#5571E9" d="M265.28,226.152l-160.582,0.125c-4.748,0.004-8.784-3.003-10.334-7.213l-0.685,0.001
		c0.005,6.082,4.939,11.009,11.021,11.004l160.582-0.126c6.082-0.005,11.009-4.939,11.004-11.021l-0.684,0.001
		C274.058,223.135,270.027,226.148,265.28,226.152z"/>
	<path fill="#27429C" d="M195.359,222.672l-20.747,0.016c-2.036,0.001-3.688-1.648-3.689-3.684l0,0l28.12-0.022l0,0
		C199.045,221.019,197.395,222.67,195.359,222.672z"/>
	<path fill="#5571E9" d="M266.889,218.93l-163.812,0.128L103,120.183c-0.004-5.672,4.59-10.274,10.263-10.279l143.271-0.112
		c5.672-0.004,10.274,4.59,10.279,10.263L266.889,218.93z"/>
	<rect x="111.565" y="118.39" fill="#312C76" width="146.75" height="92.062"/>
	<rect x="111.598" y="201.651" fill="#151247" width="146.75" height="8.801"/>
	<rect x="111.531" y="118.39" fill="#151247" width="146.75" height="4.369"/>
	<g>
		<polygon opacity="0.16" fill="#5571E9" enable-background="new    " points="160.471,118.409 111.567,167.389 111.601,210.509 
			111.707,210.509 203.697,118.375 		"/>
		<polygon opacity="0.16" fill="#5571E9" enable-background="new    " points="130.549,210.498 152.22,210.477 244.21,118.343 
			222.539,118.364 		"/>
		<polygon opacity="0.16" fill="#5571E9" enable-background="new    " points="241.09,210.408 258.338,193.133 258.312,160.447 
			206.538,210.429 		"/>
	</g>
	<g>
		<polygon fill="#D2A056" points="164.201,157.711 156.292,175.803 172.263,175.803 180.172,157.711 		"/>
		<polygon fill="#D2A056" points="194.273,157.711 186.364,175.803 202.335,175.803 210.243,157.711 		"/>
		<polygon fill="#D2A056" points="102.999,157.711 102.999,175.803 112.119,175.803 120.028,157.711 		"/>
		<polygon fill="#D2A056" points="134.129,157.711 126.22,175.803 142.191,175.803 150.1,157.711 		"/>
		<polygon fill="#D2A056" points="254.417,157.711 246.508,175.803 266.888,175.803 266.888,157.711 		"/>
		<polygon fill="#D2A056" points="224.345,157.711 216.436,175.803 232.406,175.803 240.316,157.711 		"/>
		<polygon fill="#FFFFFF" points="120.028,157.711 112.119,175.803 126.22,175.803 134.129,157.711 		"/>
		<polygon fill="#FFFFFF" points="150.1,157.711 142.191,175.803 156.292,175.803 164.201,157.711 		"/>
		<polygon fill="#FFFFFF" points="180.172,157.711 172.263,175.803 186.364,175.803 194.273,157.711 		"/>
		<polygon fill="#FFFFFF" points="210.243,157.711 202.335,175.803 216.436,175.803 224.345,157.711 		"/>
		<polygon fill="#FFFFFF" points="240.316,157.711 232.406,175.803 246.508,175.803 254.417,157.711 		"/>
	</g>
	<g>
		<g>
			<path fill="#14103D" d="M89.84,126.474l-3.204,0.123l-1.875-0.595c-0.862-0.273-1.801,0.054-2.306,0.804l-0.236,0.351
				l9.366,5.173l1.811-3.885L89.84,126.474z"/>
			<path fill="#14103D" d="M91.588,132.412l-9.44-5.214l0.33-0.598c0.065-0.118,0.214-0.161,0.331-0.095l9.226,5.096L91.588,132.412
				"/>
		</g>
		<polygon fill="#EB8175" points="93.396,128.445 95.87,124.163 93.396,119.744 89.84,126.474 		"/>
	</g>
	<path fill="#14103D" d="M112.782,103.814c0,0-13.347-3.83-14.633-0.226c-1.285,3.604-9.072,19.548-9.072,19.548l5.812,3.032
		l8.717-15.14l11.729-1.02L112.782,103.814z"/>
	<g>
		<g>
			<path fill="#14103D" d="M101.932,131.334l-2.614,1.665l-1.928,0.389c-0.886,0.179-1.549,0.92-1.627,1.821l-0.036,0.421
				l10.7-0.016l-0.3-4.276L101.932,131.334z"/>
			<path fill="#14103D" d="M106.469,135.683L95.685,135.7l-0.001-0.682c0-0.135,0.109-0.244,0.243-0.244l10.54-0.016
				L106.469,135.683"/>
		</g>
		<polygon fill="#EB8175" points="106.127,131.337 106.469,124.163 102.207,123.683 101.932,131.334 		"/>
	</g>
	<path fill="#231C61" d="M114.585,103.202l-12.58,0.573c0,0-1.809,0.099-1.688,4.335c0.121,4.236,0.11,21.278,0.11,21.278
		l6.042,0.209l1.157-17.852l12.592-0.155c2.655-0.033,5.124-1.555,6.174-3.993c0.402-0.932,0.594-1.978,0.347-3.077L114.585,103.202
		z"/>
	<g>
		<path fill="#E1AD9D" d="M102.647,100.665c0.003,1.194-0.807,1.374-2,1.377c-1.194,0.002-2.32-0.174-2.323-1.368
			c-0.002-1.194,0.964-2.163,2.157-2.166C101.675,98.505,102.644,99.471,102.647,100.665z"/>
		<path fill="#E1AD9D" d="M104.165,101.885l-2.498,0.005c-0.653,0.001-1.188-0.532-1.189-1.184l0,0
			c-0.001-0.653,0.532-1.188,1.184-1.189l2.498-0.005c0.652-0.001,1.188,0.532,1.189,1.184l0,0
			C105.35,101.348,104.817,101.883,104.165,101.885z"/>
	</g>
	<path fill="#C8C6F2" d="M104.069,102.138l-0.833-4.089l10.271-1.119l2.055-12c0.207-1.091,1.786-2.444,2.877-2.237l-0.314-0.089
		c1.091,0.207,2.093,1.474,1.886,2.565l-2,14.355c-0.147,0.775-0.733,1.392-1.499,1.578L104.069,102.138z"/>
	<path fill="#D8D7FD" d="M124.587,82.958c0.212,0.017,0.42,0.065,0.618,0.142l0.103,0.04c1.763,0.689,2.957,2.581,3.037,4.353
		l-1.605,17.026c-10.642-0.092-12.154-1.318-12.154-1.318l0.846-17.417c0.13-1.643,0.883-3.188,2.754-3.343l0,0L124.587,82.958z"/>
	<g>
		<g>
			<path fill="#EB8175" d="M112.867,102.003c0.082,1.191-0.714,1.425-1.905,1.507c-1.191,0.082-2.327-0.02-2.409-1.211
				c-0.082-1.191,0.817-2.223,2.009-2.304C111.753,99.913,112.785,100.812,112.867,102.003z"/>
			<path fill="#EB8175" d="M114.463,103.12l-2.492,0.171c-0.651,0.045-1.22-0.451-1.265-1.103l0,0
				c-0.045-0.651,0.451-1.22,1.103-1.265l2.492-0.171c0.651-0.045,1.22,0.451,1.265,1.103l0,0
				C115.61,102.506,115.114,103.075,114.463,103.12z"/>
		</g>
		<path fill="#D8D7FD" d="M114.383,103.379l-1.103-4.024l11.193-1.799l-0.636-10.408c0.134-1.102,1.342-2.341,2.444-2.207l0,0
			c1.102,0.134,2.186,1.332,2.052,2.434l0.806,12.47c-0.095,0.783-0.639,1.438-1.391,1.675L114.383,103.379z"/>
	</g>
	<path fill="#091218" d="M95.017,89.551l12.213,1.152c0.402,0.038,0.722,0.351,0.769,0.752l1.282,11.005
		c0.063,0.54-0.388,1.001-0.929,0.95l-12.415-1.171c-0.407-0.038-0.73-0.36-0.77-0.767l-1.079-10.986
		C94.034,89.951,94.482,89.501,95.017,89.551z"/>
	<path fill="#D2A056" d="M94.314,89.485l12.213,1.152c0.402,0.038,0.722,0.351,0.769,0.752l1.281,11.005
		c0.063,0.54-0.388,1.001-0.929,0.95l-12.415-1.171c-0.407-0.038-0.73-0.36-0.77-0.767L93.384,90.42
		C93.331,89.884,93.779,89.434,94.314,89.485z"/>
	<path fill="#091218" d="M108.941,102.536l8.345,0.787c0.254,0.024,0.441,0.25,0.417,0.504l0,0c-0.024,0.254-0.25,0.441-0.504,0.417
		l-8.848-0.802L108.941,102.536z"/>
	<circle fill="#FFFFFF" cx="99.983" cy="96.035" r="1.337"/>
	<polygon fill="#C8C6F2" points="123.448,89.547 123.723,97.372 113.28,99.355 122.483,96.48 	"/>
	<path fill="#EB8175" d="M117.909,81.92l0.698,1.873c0.252,0.676,0.876,1.141,1.596,1.19l0,0c1.366,0.092,2.348-1.29,1.812-2.55
		l-1.225-2.877L117.909,81.92z"/>
	<path fill="#E16C5F" d="M118.531,83.588c0,0,3.439-0.65,2.934-3.657c-0.505-3.007-3.74-0.661-3.74-0.661l0.315,3.002
		L118.531,83.588z"/>
	<g>
		<g>
			<g>
				<circle id="XMLID_7_" fill="#EB8175" cx="118.113" cy="76.875" r="5.395"/>
			</g>
			<g>
				<defs>
					<circle id="SVGID_1_" cx="118.113" cy="76.875" r="5.395"/>
				</defs>
				<clipPath id="SVGID_2_">
					<use xlink:href="#SVGID_1_"  overflow="visible"/>
				</clipPath>
				<path clip-path="url(#SVGID_2_)" fill="#231C61" d="M120.113,77.939c0,0-0.849,4.322,2.327,4.416
					c3.177,0.095,1.448-8.107,1.448-8.107l-5.028-5.059l-7.693,1.893l0.764,4.974c0,0,1.223,0.649,7.837-0.441L120.113,77.939z"/>
			</g>
			<g>
				<defs>
					<circle id="SVGID_3_" cx="118.113" cy="76.875" r="5.395"/>
				</defs>
				<clipPath id="SVGID_4_">
					<use xlink:href="#SVGID_3_"  overflow="visible"/>
				</clipPath>
				<polygon clip-path="url(#SVGID_4_)" fill="#231C61" points="116.974,74.557 119.501,78.253 121.679,75.846 				"/>
			</g>
		</g>
		<circle fill="#EB8175" cx="120.646" cy="77.582" r="1.525"/>
	</g>
	<path fill="#D2A056" d="M112.176,75.975c0,0-1.166-4.252,1.591-6.884c2.274-2.171,5.991-2.03,8.009,0.38
		c0.948,1.132,1.709,2.836,1.78,5.397L112.176,75.975z"/>
	<path fill="none" stroke="#F1AB00" stroke-width="0.2802" stroke-miterlimit="10" d="M112.762,75.904l-0.033-2.655
		c-0.008-0.673,0.518-1.232,1.191-1.264l0,0c0.664-0.031,1.236,0.462,1.302,1.123l0.266,2.649"/>
	
		<line fill="none" stroke="#FFFFFF" stroke-width="1.1206" stroke-linecap="round" stroke-linejoin="round" stroke-miterlimit="10" x1="123.556" y1="74.868" x2="111.175" y2="76.056"/>
	<polygon fill="#EB8175" points="236.275,218.323 239.05,221.012 235.887,222.713 233.176,220.058 	"/>
	<path fill="#14103D" d="M216.74,198.239l1.855,8.207c0.371,1.643,1.085,3.222,2.112,4.67l12.208,10.968l4.829-3.933l-10.424-11.038
		l-3.819-14.556L216.74,198.239z"/>
	<g>
		<path fill="#14103D" d="M235.794,222.636l-1,3.19l-1.143,1.589c-0.525,0.73-0.506,1.72,0.047,2.429l0.259,0.332l7.789-7.258
			l-3.114-2.914L235.794,222.636z"/>
		<polyline fill="#14103D" points="241.825,222.941 233.974,230.256 233.346,229.581 241.197,222.266 241.825,222.941 		"/>
	</g>
	<polygon fill="#EB8175" points="209.581,223.315 208.54,226.792 204.965,225.833 206.01,222.42 	"/>
	<path fill="#231C61" d="M214.374,189.083l-10.014,33.849l6.318,1.578l5.637-16.969l6.924-11.102
		c0.352-0.495,0.697-1.015,0.99-1.551c0.554-1.016,0.804-2.123,0.792-3.234l-0.024-2.202L214.374,189.083z"/>
	<g>
		<path fill="#14103D" d="M205.172,225.498l-3.159,1.167l-1.971,0.068c-0.906,0.031-1.683,0.656-1.908,1.534l-0.105,0.411
			l10.583,1.741l0.406-4.277L205.172,225.498z"/>
		<polyline fill="#14103D" points="208.642,230.494 197.976,228.74 198.126,227.823 208.793,229.578 208.642,230.494 		"/>
	</g>
	<g>
		<polygon fill="#334FBE" points="200.398,154.702 196.351,161.017 198.29,162.409 202.479,155.728 		"/>
		<path fill="#4265D1" d="M195.142,144.238c0,0,1.87,7.827,11.346,10.908c0.274,0.089,0.482,0.318,0.52,0.603
			c0.121,0.907,0.122,2.866-1.974,3.447c-0.198,0.055-0.419,0.014-0.593-0.095c-1.449-0.907-8.578-5.075-15.498-3.872
			L195.142,144.238z"/>
		<path fill="#334FBE" d="M195.142,144.238c0,0-1.738,7.807-6.199,10.99C188.943,155.228,189.573,148.383,195.142,144.238z"/>
	</g>
	<g>
		<g>
			<g>
				<path fill="#EB8175" d="M195.032,160.607c-0.293,1.437,0.889,3.19,2.326,3.483c1.437,0.294,2.839-0.633,3.133-2.07
					c0.294-1.437-0.889-3.19-2.326-3.483C196.728,158.244,195.326,159.17,195.032,160.607z"/>
			</g>
			<polyline fill="#EB8175" points="202.636,164.824 199.83,161.893 197.997,164.148 202.636,167.548 			"/>
		</g>
		<path fill="#C8C6F2" d="M202.189,162.114l-2.966,4.409l8.109,7.423c0.495,0.141,1.012,0.191,1.524,0.147l10.707-1.388
			c1.687-0.08,2.99-1.513,2.91-3.2l0,0c-0.08-1.687,0.244-4.129-1.443-4.049l-12.44,2.555L202.189,162.114z"/>
	</g>
	<g>
		<path fill="#D8D7FD" d="M226.204,172.231c0.285-2.34-0.775-4.655-2.76-5.926c-0.892-0.571-1.775-0.957-2.413-0.849
			c-2.135,0.361-4.331,1.328-5.271,4.211c-1.598,4.903-2.055,19.393-2.055,19.393l11.478,0.391L226.204,172.231z"/>
	</g>
	<polygon fill="#C8C6F2" points="221.967,172.596 225.418,185.278 226.116,174.519 	"/>
	<g>
		<g>
			<path fill="#EB8175" d="M236.034,197.622c1.085-0.986,1.165-3.1,0.178-4.185c-0.987-1.085-2.666-1.165-3.75-0.178
				c-1.085,0.986-1.165,3.1-0.178,4.185C233.27,198.529,234.949,198.609,236.034,197.622z"/>
		</g>
		<polyline fill="#EB8175" points="230.827,188.589 232.92,193.752 235.73,193.014 233.992,187.531 		"/>
	</g>
	<path fill="#D8D7FD" d="M230.96,192.573l5.747-1.264l-3.898-13.331c-0.145-0.494-0.378-0.958-0.688-1.368l-7.156-8.908
		c-0.967-1.385-2.598-1.138-3.983-0.171l0,0c-1.385,0.966-1.724,2.873-0.758,4.258l6.891,8.286L230.96,192.573z"/>
	<path fill="#EB8175" d="M218.344,163.712l0.218,2.01c0.079,0.725,0.575,1.337,1.268,1.564l0,0c1.316,0.431,2.623-0.679,2.411-2.048
		l-0.484-3.126L218.344,163.712z"/>
	<path fill="#E16C5F" d="M218.538,165.502c0,0,3.545-0.116,3.799-3.189c0.254-3.074-3.513-1.244-3.513-1.244l-0.438,3.021
		L218.538,165.502z"/>
	<g>
		<g>
			<g>
				<circle id="XMLID_6_" fill="#EB8175" cx="219.8" cy="158.818" r="5.457"/>
			</g>
			<g>
				<defs>
					<circle id="SVGID_5_" cx="219.8" cy="158.818" r="5.457"/>
				</defs>
				<clipPath id="SVGID_6_">
					<use xlink:href="#SVGID_5_"  overflow="visible"/>
				</clipPath>
				<path clip-path="url(#SVGID_6_)" fill="#231C61" d="M221.496,160.358c0,0-1.909,4.025,1.182,4.909s3.438-7.587,3.438-7.587
					l-3.669-6.212l-8.013-0.06l-0.49,5.066c0,0,1.037,0.941,7.792,1.52L221.496,160.358z"/>
			</g>
			<g>
				<defs>
					<circle id="SVGID_7_" cx="219.8" cy="158.818" r="5.457"/>
				</defs>
				<clipPath id="SVGID_8_">
					<use xlink:href="#SVGID_7_"  overflow="visible"/>
				</clipPath>
				<polygon clip-path="url(#SVGID_8_)" fill="#231C61" points="219.261,156.261 220.817,160.514 223.553,158.697 				"/>
			</g>
		</g>
		<circle fill="#EB8175" cx="222.107" cy="160.141" r="1.543"/>
	</g>
	<path fill="#D2A056" d="M214.172,156.925c0,0-0.267-4.452,3.01-6.482c2.703-1.674,6.352-0.759,7.847,2.047
		c0.702,1.318,1.1,3.163,0.636,5.713L214.172,156.925z"/>
	<path fill="none" stroke="#F1AB00" stroke-width="0.2834" stroke-miterlimit="10" d="M214.766,156.977l0.521-2.634
		c0.132-0.668,0.77-1.111,1.442-1.002l0,0c0.663,0.107,1.127,0.715,1.054,1.383l-0.289,2.677"/>
	
		<line fill="none" stroke="#FFFFFF" stroke-width="1.1334" stroke-linecap="round" stroke-linejoin="round" stroke-miterlimit="10" x1="225.665" y1="158.203" x2="213.164" y2="156.796"/>
	
		<line fill="none" stroke="#3D5AC4" stroke-width="2.6489" stroke-miterlimit="10" x1="301.965" y1="190.556" x2="289.031" y2="203.307"/>
	
		<line fill="none" stroke="#3D5AC4" stroke-width="2.6489" stroke-miterlimit="10" x1="301.965" y1="176.93" x2="289.031" y2="189.681"/>
	
		<line fill="none" stroke="#3D5AC4" stroke-width="2.6489" stroke-miterlimit="10" x1="301.965" y1="163.304" x2="289.031" y2="176.055"/>
	
		<line fill="none" stroke="#3D5AC4" stroke-width="2.6489" stroke-miterlimit="10" x1="301.965" y1="149.678" x2="289.031" y2="162.429"/>
	
		<line fill="none" stroke="#3D5AC4" stroke-width="2.6489" stroke-miterlimit="10" x1="301.965" y1="136.052" x2="289.031" y2="148.803"/>
	
		<line fill="none" stroke="#3D5AC4" stroke-width="2.6489" stroke-miterlimit="10" x1="301.965" y1="122.426" x2="289.031" y2="135.177"/>
	
		<line fill="none" stroke="#3D5AC4" stroke-width="2.6489" stroke-miterlimit="10" x1="301.965" y1="108.8" x2="289.031" y2="121.551"/>
	
		<line fill="none" stroke="#3D5AC4" stroke-width="2.6489" stroke-miterlimit="10" x1="301.965" y1="95.174" x2="289.031" y2="107.925"/>
	
		<line fill="none" stroke="#3D5AC4" stroke-width="2.6489" stroke-miterlimit="10" x1="301.965" y1="81.548" x2="289.031" y2="94.299"/>
	
		<line fill="none" stroke="#3D5AC4" stroke-width="2.6489" stroke-miterlimit="10" x1="301.965" y1="67.923" x2="289.031" y2="80.673"/>
	
		<line fill="none" stroke="#3D5AC4" stroke-width="2.6489" stroke-miterlimit="10" x1="301.965" y1="54.297" x2="289.031" y2="67.047"/>
	
		<line fill="none" stroke="#3D5AC4" stroke-width="2.6489" stroke-miterlimit="10" x1="289.031" y1="189.681" x2="301.965" y2="189.681"/>
	
		<line fill="none" stroke="#3D5AC4" stroke-width="2.6489" stroke-miterlimit="10" x1="289.031" y1="176.055" x2="301.965" y2="176.055"/>
	
		<line fill="none" stroke="#3D5AC4" stroke-width="2.6489" stroke-miterlimit="10" x1="289.031" y1="162.429" x2="301.965" y2="162.429"/>
	
		<line fill="none" stroke="#3D5AC4" stroke-width="2.6489" stroke-miterlimit="10" x1="289.031" y1="148.803" x2="301.965" y2="148.803"/>
	
		<line fill="none" stroke="#3D5AC4" stroke-width="2.6489" stroke-miterlimit="10" x1="289.031" y1="135.177" x2="301.965" y2="135.177"/>
	
		<line fill="none" stroke="#3D5AC4" stroke-width="2.6489" stroke-miterlimit="10" x1="289.031" y1="121.551" x2="301.965" y2="121.551"/>
	
		<line fill="none" stroke="#3D5AC4" stroke-width="2.6489" stroke-miterlimit="10" x1="289.031" y1="107.925" x2="301.965" y2="107.925"/>
	
		<line fill="none" stroke="#3D5AC4" stroke-width="2.6489" stroke-miterlimit="10" x1="289.031" y1="94.299" x2="301.965" y2="94.299"/>
	
		<line fill="none" stroke="#3D5AC4" stroke-width="2.6489" stroke-miterlimit="10" x1="289.031" y1="80.673" x2="301.965" y2="80.673"/>
	
		<line fill="none" stroke="#3D5AC4" stroke-width="2.6489" stroke-miterlimit="10" x1="289.031" y1="67.047" x2="301.965" y2="67.047"/>
	
		<line fill="none" stroke="#5571E9" stroke-width="2.6489" stroke-miterlimit="10" x1="289.031" y1="207" x2="289.031" y2="56.476"/>
	
		<line fill="none" stroke="#5571E9" stroke-width="2.6489" stroke-miterlimit="10" x1="301.965" y1="207" x2="301.965" y2="56.476"/>
	<rect x="282.363" y="203.307" fill="#061833" width="25.757" height="26.762"/>
	<path fill="#3D5AC4" d="M302,56.476h-13.463c-2.375,0-4.301-1.925-4.301-4.3V35.289c0-2.375,1.925-4.3,4.301-4.3H302
		c2.375,0,4.301,1.925,4.301,4.3v16.886C306.301,54.55,304.376,56.476,302,56.476z"/>
	<path fill="#061833" d="M294.913,49.059h-8.666V37.134h8.666c1.8,0,3.259,1.459,3.259,3.259V45.8
		C298.172,47.6,296.713,49.059,294.913,49.059z"/>
	<g>
		
			<line fill="none" stroke="#231C61" stroke-width="2.1624" stroke-miterlimit="10" x1="203.697" y1="57.867" x2="214.043" y2="87.924"/>
		
			<line fill="none" stroke="#231C61" stroke-width="2.1624" stroke-miterlimit="10" x1="196.499" y1="54.297" x2="176.322" y2="81.548"/>
		<g>
			<path fill="#D2A056" d="M202.525,67.668l20.849,27.264c2.294,3,1.722,7.291-1.278,9.586l-27.264,20.849
				c-3,2.294-7.292,1.722-9.586-1.278l-20.849-27.264c-2.294-3-1.722-7.291,1.278-9.585l27.264-20.849
				C195.939,64.096,200.231,64.668,202.525,67.668z"/>
			<path fill="none" stroke="#061833" stroke-width="1.1138" stroke-miterlimit="10" d="M200.954,72.797l17.059,22.307
				c1.877,2.455,1.409,5.966-1.046,7.843l-22.307,17.059c-2.454,1.877-5.966,1.409-7.843-1.046l-17.059-22.307
				c-1.877-2.454-1.409-5.966,1.046-7.843l22.307-17.059C195.566,69.874,199.077,70.342,200.954,72.797z"/>
			<g>
				<path fill="#061833" d="M195.655,106.052c-0.54,4.048-6.682,3.229-6.143-0.819C190.057,101.149,196.199,101.968,195.655,106.052
					z M198.297,83.438l-2.411,17.013l-5.165-0.689c0.763-5.724,1.399-11.287,2.166-17.046L198.297,83.438z"/>
			</g>
		</g>
	</g>
	<g>
		<g>
			<circle fill="#231C61" cx="200.745" cy="51.75" r="8.65"/>
			<circle fill="#373482" cx="200.745" cy="51.75" r="6.116"/>
		</g>
		<g>
			
				<line fill="none" stroke="#3D5AC4" stroke-width="2.6489" stroke-miterlimit="10" x1="234.664" y1="12.654" x2="234.664" y2="30.989"/>
			
				<line fill="none" stroke="#3D5AC4" stroke-width="2.6489" stroke-miterlimit="10" x1="218.222" y1="12.654" x2="218.222" y2="30.989"/>
			
				<line fill="none" stroke="#3D5AC4" stroke-width="2.6489" stroke-miterlimit="10" x1="251.052" y1="12.654" x2="251.052" y2="30.989"/>
			
				<line fill="none" stroke="#3D5AC4" stroke-width="2.6489" stroke-miterlimit="10" x1="269.261" y1="12.654" x2="269.261" y2="30.989"/>
			
				<line fill="none" stroke="#3D5AC4" stroke-width="2.6489" stroke-miterlimit="10" x1="286.247" y1="12.654" x2="286.247" y2="30.989"/>
			
				<line fill="none" stroke="#3D5AC4" stroke-width="2.6489" stroke-miterlimit="10" x1="303.858" y1="12.654" x2="303.858" y2="30.989"/>
			
				<line fill="none" stroke="#3D5AC4" stroke-width="2.6489" stroke-miterlimit="10" x1="321.156" y1="12.654" x2="321.156" y2="30.989"/>
			
				<line fill="none" stroke="#3D5AC4" stroke-width="2.6489" stroke-miterlimit="10" x1="217.366" y1="30.989" x2="234.664" y2="12.654"/>
			
				<line fill="none" stroke="#3D5AC4" stroke-width="2.6489" stroke-miterlimit="10" x1="234.664" y1="30.989" x2="251.963" y2="12.654"/>
			
				<line fill="none" stroke="#3D5AC4" stroke-width="2.6489" stroke-miterlimit="10" x1="251.963" y1="30.989" x2="269.261" y2="12.654"/>
			
				<line fill="none" stroke="#3D5AC4" stroke-width="2.6489" stroke-miterlimit="10" x1="269.261" y1="30.989" x2="286.559" y2="12.654"/>
			
				<line fill="none" stroke="#3D5AC4" stroke-width="2.6489" stroke-miterlimit="10" x1="286.559" y1="30.989" x2="303.858" y2="12.654"/>
			
				<line fill="none" stroke="#3D5AC4" stroke-width="2.6489" stroke-miterlimit="10" x1="303.858" y1="30.989" x2="321.156" y2="12.654"/>
			
				<polygon fill="none" stroke="#5571E9" stroke-width="2.6489" stroke-linecap="round" stroke-linejoin="round" stroke-miterlimit="10" points="
				200.745,30.989 341.782,30.989 322.792,12.654 215.335,12.654 			"/>
			
				<line fill="none" stroke="#5571E9" stroke-width="2.6489" stroke-linecap="round" stroke-linejoin="round" stroke-miterlimit="10" x1="200.745" y1="30.989" x2="200.745" y2="51.75"/>
		</g>
	</g>
	<g>
		<polygon fill="#D2A056" points="146.894,223.212 127.875,223.212 126.18,227.592 148.589,227.592 		"/>
		<polygon fill="#D2A056" points="142.934,212.978 131.835,212.978 129.97,217.797 144.799,217.797 		"/>
		<path fill="#D2A056" d="M138.716,202.076c-0.471-1.216-2.192-1.216-2.663,0l-2.123,5.486h6.909L138.716,202.076z"/>
		<polygon fill="#FAFAFA" points="140.839,207.562 133.93,207.562 131.835,212.978 142.934,212.978 		"/>
		<polygon fill="#FAFAFA" points="144.799,217.797 129.97,217.797 127.875,223.212 146.894,223.212 		"/>
	</g>
	<rect x="124.376" y="227.592" fill="#E8C400" width="26.129" height="2.15"/>
	<g>
		<path fill="#D2A056" d="M282.072,202.154c-0.47-1.216-2.191-1.216-2.662,0l-2.123,5.487h6.908L282.072,202.154z"/>
		<polygon fill="#D2A056" points="286.291,213.057 275.191,213.057 273.327,217.875 288.155,217.875 		"/>
		<polygon fill="#D2A056" points="290.25,223.29 271.232,223.29 269.537,227.67 291.945,227.67 		"/>
		<polygon fill="#FAFAFA" points="284.195,207.641 277.287,207.641 275.191,213.057 286.291,213.057 		"/>
		<polygon fill="#FAFAFA" points="288.155,217.875 273.327,217.875 271.232,223.29 290.25,223.29 		"/>
	</g>
	<rect x="267.733" y="227.67" fill="#E8C400" width="26.129" height="2.15"/>
	<circle fill="#061833" cx="72.558" cy="184.944" r="20.502"/>
	
		<line fill="none" stroke="#3D5AC4" stroke-width="1.1366" stroke-linecap="round" stroke-linejoin="round" stroke-miterlimit="10" x1="72.558" y1="177.636" x2="72.558" y2="229.742"/>
	
		<line fill="none" stroke="#3D5AC4" stroke-width="1.1366" stroke-linecap="round" stroke-linejoin="round" stroke-miterlimit="10" x1="64.585" y1="178.698" x2="72.558" y2="187.639"/>
	
		<path fill="none" stroke="#3D5AC4" stroke-width="1.1366" stroke-linecap="round" stroke-linejoin="round" stroke-miterlimit="10" d="
		M79.63,187.147c-0.571,0.571-7.072,7.34-7.072,7.34"/>
	
		<line fill="none" stroke="#3D5AC4" stroke-width="1.1366" stroke-linecap="round" stroke-linejoin="round" stroke-miterlimit="10" x1="10.847" y1="230.243" x2="354.749" y2="230.243"/>
</g>
</svg>
