<svg width="53" height="53" viewBox="0 0 53 53" fill="none" xmlns="http://www.w3.org/2000/svg">
<path d="M26.5 0C11.888 0 0 11.888 0 26.5C0 41.111 11.888 53 26.5 53C41.111 53 53 41.111 53 26.5C53 11.888 41.1131 0 26.5 0ZM33.0903 27.4329H28.779C28.779 34.3211 28.779 42.7996 28.779 42.7996H22.3904C22.3904 42.7996 22.3904 34.4032 22.3904 27.4329H19.3536V22.0019H22.3904V18.4889C22.3904 15.973 23.5859 12.0417 28.8377 12.0417L33.5717 12.0598V17.3318C33.5717 17.3318 30.695 17.3318 30.1357 17.3318C29.5763 17.3318 28.7811 17.6115 28.7811 18.8113V22.0029H33.6486L33.0903 27.4329Z" fill="white"/>
</svg>
