<svg width="53" height="53" viewBox="0 0 53 53" fill="none" xmlns="http://www.w3.org/2000/svg">
<path d="M15.789 0H37.211C45.9171 0 53 7.0829 53 15.789V37.211C53 45.9171 45.9171 53 37.211 53H15.789C7.0829 53 -1.35453e-06 45.9171 -1.35453e-06 37.211V15.789C9.48283e-05 7.0829 7.083 0 15.789 0ZM5.3318 37.211C5.3318 42.9863 10.0137 47.6682 15.789 47.6682H37.211C42.9863 47.6682 47.6682 42.9863 47.6682 37.211V15.789C47.6682 10.0136 42.9863 5.3318 37.211 5.3318H15.789C10.0137 5.3318 5.3318 10.0136 5.3318 15.789V37.211Z" fill="white"/>
<path d="M26.5 12.7923C34.0584 12.7923 40.2077 18.9416 40.2077 26.4999C40.2077 34.0582 34.0584 40.2076 26.5 40.2076C18.9416 40.2076 12.7923 34.0583 12.7923 26.4999C12.7923 18.9415 18.9416 12.7923 26.5 12.7923ZM26.5 34.8759C31.1259 34.8759 34.8759 31.1259 34.8759 26.5C34.8759 21.8741 31.1258 18.1241 26.5 18.1241C21.8741 18.1241 18.1241 21.8741 18.1241 26.5C18.1241 31.1258 21.8742 34.8759 26.5 34.8759Z" fill="white"/>
<path d="M12.7658 16.1799C10.9517 16.1799 9.48113 14.7093 9.48113 12.8952C9.48113 11.0812 10.9517 9.6106 12.7658 9.6106C14.5798 9.6106 16.0504 11.0812 16.0504 12.8952C16.0504 14.7093 14.5798 16.1799 12.7658 16.1799Z" fill="white"/>
</svg>
