<?xml version="1.0" encoding="utf-8"?>
<!-- Generator: Adobe Illustrator 17.0.0, SVG Export Plug-In . SVG Version: 6.00 Build 0)  -->
<!DOCTYPE svg PUBLIC "-//W3C//DTD SVG 1.1//EN" "http://www.w3.org/Graphics/SVG/1.1/DTD/svg11.dtd">
<svg version="1.1" id="Layer_1" xmlns="http://www.w3.org/2000/svg" xmlns:xlink="http://www.w3.org/1999/xlink" x="0px" y="0px"
	 width="1280px" height="45.384px" viewBox="0 0 1280 45.384" enable-background="new 0 0 1280 45.384" xml:space="preserve">
<g>
	<path fill="#261D10" d="M658.131,8.459c-3.166,0-5.902,1.86-7.179,4.544c-0.134,0.28,0.076,0.605,0.387,0.605h1.493
		c0.559,0,1.088-0.244,1.462-0.658c0.947-1.049,2.316-1.711,3.837-1.711H1280v-2.78C1280,8.459,658.131,8.459,658.131,8.459z"/>
	<path fill="#261D10" d="M1277.548,28.123H651.267c-0.196,0-0.355-0.159-0.355-0.355v-3.053c0-0.197,0.16-0.357,0.355-0.357H1280
		v-2.791l-630.869,0.01c-0.367-0.017-0.747,0.071-1.096,0.299l-10.07,6.561c-0.378,0.247-0.379,0.8-0.003,1.049l1.507,0.993
		c0.208,0.138,0.48,0.139,0.688,0.001l6.769-4.437c0.172-0.113,0.399,0.01,0.399,0.215v1.064c0,0.514-0.258,0.994-0.687,1.277
		l-5.764,3.8c-0.51,0.337-1.173,0.337-1.683,0l-4.812-3.172c-0.194-0.128-0.194-0.413,0-0.54l15.63-10.305
		c0.576-0.38,1.251-0.582,1.942-0.582H1280v-2.793H651.421c-0.583,0-1.155-0.167-1.638-0.492c-1.619-1.091-4.91-2.773-9.81-2.773
		c-4.899,0-8.19,1.682-9.81,2.773c-0.483,0.325-1.054,0.492-1.637,0.492H0V17.8h628.679c0.197,0,0.356,0.16,0.356,0.356v3.061
		c0,0.197-0.16,0.356-0.356,0.356L0,21.567v2.791h630.609v-0.003c0.293,0.001,0.594-0.078,0.872-0.261l9.709-6.401
		c0.201-0.132,0.127-0.446-0.112-0.472c-0.344-0.037-0.694-0.058-1.045-0.058c-1.592,0-3.183,0.441-4.284,0.833
		c-0.313,0.112-0.611,0.259-0.889,0.441l-1.925,1.27c-0.083,0.054-0.193-0.005-0.193-0.104V17.6c0-0.244,0.143-0.464,0.365-0.563
		c1.012-0.453,3.97-1.65,6.926-1.65c2.083,0,4.166,0.594,5.57,1.104c0.199,0.072,0.227,0.34,0.05,0.456l-16.062,10.595
		c-0.577,0.38-1.252,0.583-1.943,0.583H1.834c-0.651,0-1.255-0.056-1.834-0.137v2.809c0.586,0.066,1.192,0.11,1.834,0.11H629.2
		c0.808,0,1.598,0.239,2.271,0.687l7.58,5.053c0.559,0.374,1.288,0.374,1.847,0l7.579-5.053c0.674-0.448,1.463-0.687,2.271-0.687
		h626.802c0.875,0,1.681-0.083,2.452-0.202v-2.828C1279.243,28.021,1278.44,28.123,1277.548,28.123z"/>
	<path fill="#261D10" d="M621.816,11.239c1.521,0,2.89,0.661,3.837,1.711c0.375,0.415,0.902,0.658,1.462,0.658h1.492
		c0.312,0,0.521-0.325,0.388-0.605c-1.278-2.685-4.015-4.544-7.179-4.544H0v2.78C0,11.239,621.816,11.239,621.816,11.239z"/>
</g>
</svg>
