<?xml version="1.0" encoding="utf-8"?>
<!-- Generator: Adobe Illustrator 17.0.0, SVG Export Plug-In . SVG Version: 6.00 Build 0)  -->
<!DOCTYPE svg PUBLIC "-//W3C//DTD SVG 1.1//EN" "http://www.w3.org/Graphics/SVG/1.1/DTD/svg11.dtd">
<svg version="1.1" id="Layer_1" xmlns="http://www.w3.org/2000/svg" xmlns:xlink="http://www.w3.org/1999/xlink" x="0px" y="0px"
	 width="100px" height="34.72px" viewBox="39.453 -211.708 100 34.72" enable-background="new 39.453 -211.708 100 34.72"
	 xml:space="preserve">
<g>
	<path fill="#D2A056" d="M138.605-209.293c-0.282-0.23-0.648-0.334-1.011-0.334h-28.097c-3.484,0-6.495,2.046-7.899,5
		c-0.147,0.308,0.084,0.666,0.426,0.666h1.643c0.615,0,1.197-0.268,1.609-0.724c1.042-1.155,2.548-1.882,4.223-1.882h25.271
		c-1.6,1.829-4.597,4.145-9.514,4.145h-23.14c-0.642,0-1.271-0.184-1.802-0.542c-1.781-1.201-5.403-3.051-10.794-3.051
		c-5.391,0-9.012,1.85-10.794,3.051c-0.531,0.357-1.16,0.542-1.801,0.542H53.779c-4.917,0-7.916-2.316-9.514-4.145h25.272
		c1.675,0,3.18,0.727,4.223,1.882c0.412,0.456,0.992,0.724,1.609,0.724h1.642c0.343,0,0.574-0.357,0.427-0.666
		c-1.406-2.953-4.418-5-7.899-5H41.44c-0.363,0-0.727,0.105-1.011,0.334c-0.561,0.459-0.716,1.212-0.433,1.832
		c0.103,0.224,1.825,3.871,6.033,6.193c-0.088,0.337-0.063,0.698,0.086,1.024c0.102,0.224,1.825,3.872,6.033,6.194
		c-0.088,0.336-0.063,0.698,0.086,1.023c0.151,0.331,3.817,8.097,13.782,8.097h11.646c0.889,0,1.758,0.263,2.499,0.756l8.34,5.56
		c0.615,0.411,1.417,0.411,2.033,0l8.34-5.56c0.742-0.493,1.61-0.756,2.499-0.756h11.647c9.965,0,13.631-7.766,13.782-8.097
		c0.149-0.325,0.175-0.687,0.086-1.023c4.208-2.323,5.931-5.97,6.033-6.194c0.148-0.326,0.174-0.687,0.086-1.024
		c4.208-2.322,5.931-5.969,6.034-6.193C139.322-208.081,139.167-208.834,138.605-209.293 M50.384-199.35H77.09
		c0.216,0,0.392,0.176,0.392,0.392v3.368c0,0.216-0.176,0.392-0.392,0.392l-17.19-0.01C54.98-195.207,51.985-197.523,50.384-199.35
		 M56.503-192.133h22.71v-0.003c0.323,0.001,0.654-0.086,0.959-0.287l10.683-7.043c0.221-0.145,0.14-0.491-0.123-0.52
		c-0.379-0.041-0.764-0.064-1.149-0.064c-1.751,0-3.503,0.485-4.715,0.917c-0.344,0.123-0.672,0.285-0.978,0.486l-2.118,1.398
		c-0.091,0.06-0.212-0.005-0.212-0.114v-2.205c0-0.268,0.158-0.51,0.402-0.62c1.114-0.499,4.369-1.816,7.621-1.816
		c2.292,0,4.584,0.654,6.129,1.214c0.219,0.079,0.251,0.375,0.055,0.502L78.094-188.63c-0.635,0.419-1.378,0.642-2.138,0.642h-9.937
		C61.099-187.99,58.103-190.305,56.503-192.133 M113.018-187.99h-11.073c-0.215,0-0.391-0.175-0.391-0.391v-3.36
		c0-0.216,0.176-0.392,0.391-0.392h20.587C120.931-190.304,117.933-187.99,113.018-187.99 M119.136-195.207l-19.542,0.013
		c-0.404-0.019-0.822,0.078-1.206,0.33l-11.081,7.219c-0.416,0.271-0.418,0.88-0.003,1.155l1.658,1.092
		c0.23,0.152,0.527,0.153,0.757,0.001l7.449-4.883c0.189-0.124,0.44,0.011,0.44,0.236v1.17c0,0.566-0.283,1.093-0.756,1.405
		l-6.342,4.181c-0.561,0.371-1.29,0.371-1.851,0l-5.295-3.491c-0.213-0.141-0.213-0.454,0-0.594l17.199-11.339
		c0.634-0.419,1.377-0.641,2.137-0.641h25.952C127.049-197.521,124.052-195.207,119.136-195.207"/>
</g>
</svg>
