<?xml version="1.0" encoding="utf-8"?>
<!-- Generator: Adobe Illustrator 17.0.0, SVG Export Plug-In . SVG Version: 6.00 Build 0)  -->
<!DOCTYPE svg PUBLIC "-//W3C//DTD SVG 1.1//EN" "http://www.w3.org/Graphics/SVG/1.1/DTD/svg11.dtd">
<svg version="1.1" id="Layer_1" xmlns="http://www.w3.org/2000/svg" xmlns:xlink="http://www.w3.org/1999/xlink" x="0px" y="0px"
	 width="118px" height="67px" viewBox="6.754 7.263 118 67" enable-background="new 6.754 7.263 118 67" xml:space="preserve">
<g>
	<path fill="#D2A056" d="M23.534,68.752c0.26,0,0.487,0.096,0.678,0.286c0.19,0.19,0.286,0.415,0.286,0.678v2.355
		c0,0.262-0.096,0.488-0.286,0.679c-0.19,0.19-0.417,0.285-0.678,0.285H9.044c-0.261,0-0.487-0.095-0.678-0.285
		c-0.19-0.19-0.285-0.416-0.285-0.679v-2.426c0-0.286,0.047-0.518,0.143-0.697c0.096-0.178,0.214-0.35,0.357-0.517l7.357-7.974
		c0.597-0.648,0.137-1.697-0.745-1.697H9.401c-0.261,0-0.487-0.095-0.678-0.286c-0.19-0.19-0.285-0.416-0.285-0.678v-2.355
		c0-0.262,0.095-0.487,0.285-0.679c0.19-0.19,0.416-0.285,0.678-0.285H22.82c0.261,0,0.487,0.096,0.678,0.285
		c0.19,0.191,0.286,0.416,0.286,0.679v2.426c0,0.214-0.054,0.429-0.161,0.643c-0.107,0.213-0.22,0.405-0.34,0.571l-7.355,7.973
		c-0.598,0.648-0.139,1.697,0.743,1.697L23.534,68.752L23.534,68.752z"/>
	<path fill="#D2A056" d="M27.173,63.756c0-1.333,0.202-2.588,0.607-3.766c0.405-1.177,0.987-2.2,1.749-3.069
		c0.761-0.867,1.683-1.551,2.766-2.051c1.082-0.501,2.289-0.75,3.623-0.75c1.332,0,2.539,0.244,3.622,0.732
		c1.082,0.488,2.005,1.142,2.766,1.963c0.762,0.82,1.35,1.784,1.767,2.89c0.416,1.106,0.625,2.266,0.625,3.48v1.606
		c0,0.261-0.096,0.488-0.286,0.678s-0.416,0.286-0.678,0.286H33.066c-0.737,0-1.27,0.783-0.921,1.433
		c0.003,0.004,0.004,0.009,0.006,0.011c0.227,0.417,0.53,0.768,0.911,1.054c0.38,0.285,0.82,0.499,1.32,0.642
		s1.011,0.214,1.535,0.214c0.761,0,1.379-0.078,1.855-0.233c0.477-0.154,0.869-0.35,1.178-0.589c0.261-0.19,0.476-0.322,0.643-0.392
		c0.166-0.072,0.392-0.107,0.678-0.107h2.855c0.261,0,0.494,0.095,0.696,0.285c0.202,0.191,0.291,0.416,0.268,0.678
		c-0.024,0.334-0.21,0.762-0.553,1.285c-0.346,0.524-0.862,1.035-1.552,1.535c-0.691,0.499-1.541,0.927-2.552,1.284
		c-1.012,0.357-2.183,0.535-3.515,0.535c-1.333,0-2.54-0.232-3.623-0.696s-2.005-1.124-2.766-1.981
		c-0.762-0.856-1.344-1.873-1.749-3.05C27.375,66.486,27.173,65.183,27.173,63.756 M35.917,58.402c-0.691,0-1.28,0.101-1.767,0.303
		s-0.898,0.464-1.232,0.786c-0.332,0.321-0.589,0.678-0.768,1.07c-0.178,0.392-0.291,0.768-0.338,1.125h8.065
		c-0.048-0.357-0.138-0.732-0.268-1.125c-0.131-0.392-0.346-0.749-0.642-1.07c-0.298-0.322-0.69-0.584-1.178-0.786
		C37.302,58.504,36.678,58.402,35.917,58.402"/>
	<path fill="#D2A056" d="M66.001,72.07c0,0.262-0.096,0.488-0.286,0.679c-0.19,0.19-0.416,0.285-0.678,0.285h-2.712
		c-0.262,0-0.488-0.095-0.679-0.285c-0.19-0.19-0.285-0.416-0.285-0.679v-9.064c0-1.428-0.333-2.569-0.999-3.426
		c-0.666-0.856-1.689-1.284-3.069-1.284c-1.261,0-2.254,0.429-2.979,1.284c-0.726,0.858-1.089,1.998-1.089,3.426v9.064
		c0,0.262-0.095,0.488-0.284,0.679c-0.191,0.19-0.417,0.285-0.679,0.285h-2.713c-0.262,0-0.488-0.095-0.678-0.285
		c-0.191-0.19-0.286-0.416-0.286-0.679V55.44c0-0.261,0.095-0.487,0.286-0.679c0.189-0.189,0.415-0.285,0.678-0.285h2.712
		c0.261,0,0.487,0.096,0.679,0.285c0.189,0.191,0.284,0.417,0.284,0.679v0.82c0.619-0.617,1.345-1.129,2.177-1.534
		c0.833-0.404,1.82-0.607,2.962-0.607c1.451,0,2.664,0.226,3.64,0.679c0.976,0.452,1.761,1.059,2.355,1.819
		c0.594,0.762,1.017,1.648,1.267,2.66C65.875,60.288,66,61.353,66,62.471L66.001,72.07L66.001,72.07z"/>
	<path fill="#D2A056" d="M76.814,66.325c0,0.738,0.196,1.326,0.589,1.767c0.392,0.44,1.125,0.659,2.195,0.659h2.177
		c0.261,0,0.487,0.096,0.679,0.286c0.189,0.19,0.284,0.416,0.284,0.678v2.355c0,0.262-0.095,0.488-0.284,0.679
		c-0.191,0.19-0.417,0.285-0.679,0.285h-2.641c-2.237,0-3.957-0.542-5.158-1.624c-1.201-1.081-1.802-2.742-1.802-4.979v-7.672
		h-2.355c-0.261,0-0.487-0.095-0.678-0.286c-0.19-0.19-0.285-0.416-0.285-0.678V55.44c0-0.261,0.095-0.487,0.285-0.679
		c0.19-0.19,0.416-0.285,0.678-0.285h0.96c0.771,0,1.395-0.624,1.395-1.395v-4.422c0-0.261,0.096-0.487,0.286-0.678
		c0.189-0.19,0.416-0.286,0.678-0.286h2.712c0.262,0,0.487,0.096,0.678,0.286c0.19,0.19,0.286,0.416,0.286,0.678v5.817h4.604
		c0.26,0,0.486,0.096,0.678,0.285c0.189,0.191,0.284,0.417,0.284,0.679v2.355c0,0.261-0.095,0.488-0.284,0.678
		c-0.191,0.191-0.417,0.286-0.678,0.286h-3.593c-0.559,0-1.012,0.452-1.012,1.011L76.814,66.325L76.814,66.325z"/>
	<path fill="#D2A056" d="M85.306,63.756c0-1.333,0.202-2.588,0.607-3.766c0.405-1.177,0.987-2.2,1.749-3.069
		c0.762-0.867,1.683-1.551,2.766-2.051c1.083-0.501,2.289-0.75,3.623-0.75c1.332,0,2.539,0.244,3.622,0.732
		c1.082,0.488,2.004,1.142,2.766,1.963c0.761,0.82,1.349,1.784,1.767,2.89c0.415,1.106,0.624,2.266,0.624,3.48v1.606
		c0,0.261-0.096,0.488-0.285,0.678c-0.19,0.19-0.417,0.286-0.679,0.286H91.199c-0.737,0-1.269,0.783-0.92,1.433
		c0.002,0.004,0.003,0.009,0.006,0.011c0.226,0.417,0.529,0.768,0.91,1.054c0.38,0.285,0.821,0.499,1.32,0.642
		c0.501,0.143,1.012,0.214,1.535,0.214c0.761,0,1.379-0.078,1.856-0.233c0.476-0.154,0.868-0.35,1.178-0.589
		c0.26-0.19,0.476-0.322,0.642-0.392c0.167-0.072,0.392-0.107,0.678-0.107h2.855c0.262,0,0.494,0.095,0.697,0.285
		c0.202,0.191,0.29,0.416,0.267,0.678c-0.024,0.334-0.209,0.762-0.553,1.285c-0.345,0.524-0.862,1.035-1.552,1.535
		c-0.69,0.499-1.541,0.927-2.552,1.284c-1.012,0.357-2.183,0.535-3.515,0.535c-1.333,0-2.539-0.232-3.623-0.696
		c-1.082-0.464-2.004-1.124-2.766-1.981c-0.762-0.856-1.344-1.873-1.749-3.05C85.508,66.486,85.306,65.183,85.306,63.756
		 M94.05,58.402c-0.691,0-1.28,0.101-1.767,0.303s-0.898,0.464-1.231,0.786c-0.333,0.321-0.589,0.678-0.768,1.07
		c-0.178,0.392-0.291,0.768-0.339,1.125h8.065c-0.048-0.357-0.137-0.732-0.268-1.125c-0.13-0.392-0.345-0.749-0.642-1.07
		c-0.298-0.322-0.69-0.584-1.177-0.786C95.436,58.504,94.811,58.402,94.05,58.402"/>
	<path fill="#D2A056" d="M110.466,62.506c-0.048,0.357-0.071,0.774-0.071,1.25s0.023,0.891,0.071,1.248
		c0.071,0.738,0.237,1.369,0.499,1.892c0.262,0.524,0.59,0.945,0.982,1.266c0.392,0.322,0.827,0.56,1.303,0.714
		c0.476,0.155,0.964,0.232,1.463,0.232c0.595,0,1.094-0.047,1.499-0.143c0.405-0.095,0.749-0.232,1.036-0.411
		c0.285-0.178,0.529-0.38,0.731-0.606c0.202-0.227,0.398-0.481,0.589-0.768c0.143-0.214,0.309-0.429,0.5-0.642
		c0.19-0.214,0.416-0.322,0.678-0.322h2.712c0.262,0,0.494,0.096,0.697,0.286c0.202,0.19,0.291,0.415,0.267,0.678
		c-0.023,0.5-0.202,1.106-0.534,1.819c-0.334,0.714-0.852,1.398-1.553,2.053c-0.702,0.654-1.6,1.207-2.694,1.66
		c-1.094,0.452-2.404,0.678-3.926,0.678c-1.309,0-2.486-0.22-3.533-0.659c-1.048-0.44-1.957-1.036-2.73-1.786
		c-0.774-0.748-1.381-1.616-1.821-2.604c-0.44-0.988-0.707-2.028-0.803-3.123c-0.047-0.428-0.071-0.903-0.071-1.427
		c0-0.524,0.024-1.012,0.071-1.464c0.073-1.093,0.333-2.141,0.786-3.14c0.451-0.999,1.058-1.873,1.819-2.622
		s1.671-1.344,2.731-1.784c1.059-0.44,2.241-0.661,3.551-0.661c1.522,0,2.832,0.227,3.926,0.679s1.992,1.005,2.694,1.66
		s1.219,1.338,1.553,2.052c0.332,0.713,0.511,1.32,0.534,1.82c0.024,0.261-0.065,0.487-0.267,0.678
		c-0.203,0.191-0.435,0.285-0.697,0.285h-2.712c-0.261,0-0.487-0.107-0.678-0.322c-0.19-0.213-0.357-0.428-0.5-0.641
		c-0.19-0.285-0.387-0.542-0.589-0.768c-0.202-0.227-0.446-0.428-0.731-0.607c-0.286-0.178-0.631-0.315-1.036-0.411
		c-0.405-0.095-0.903-0.143-1.499-0.143c-0.5,0-0.988,0.078-1.463,0.232c-0.476,0.155-0.91,0.392-1.303,0.714
		c-0.391,0.322-0.72,0.745-0.982,1.266C110.703,61.139,110.537,61.768,110.466,62.506"/>
	<path fill="#D2A056" d="M110.428,8.439c-0.257-0.209-0.59-0.304-0.92-0.304H83.937c-3.171,0-5.911,1.862-7.189,4.551
		c-0.134,0.28,0.076,0.606,0.388,0.606h1.495c0.56,0,1.089-0.244,1.464-0.659c0.948-1.051,2.319-1.713,3.843-1.713h22.999
		c-1.456,1.665-4.184,3.772-8.659,3.772h-21.06c-0.584,0-1.157-0.167-1.64-0.493c-1.621-1.093-4.917-2.777-9.824-2.777
		c-4.906,0-8.202,1.684-9.824,2.777c-0.483,0.325-1.056,0.493-1.639,0.493H33.227c-4.475,0-7.204-2.108-8.659-3.772h23
		c1.524,0,2.894,0.662,3.843,1.713c0.375,0.415,0.903,0.659,1.464,0.659h1.494c0.312,0,0.522-0.325,0.389-0.606
		c-1.28-2.688-4.021-4.551-7.189-4.551H21.997c-0.33,0-0.662,0.096-0.92,0.304c-0.511,0.418-0.652,1.103-0.394,1.667
		c0.094,0.204,1.661,3.523,5.491,5.636c-0.08,0.307-0.057,0.635,0.078,0.932c0.093,0.204,1.661,3.524,5.491,5.637
		c-0.08,0.306-0.057,0.635,0.078,0.931c0.137,0.301,3.474,7.369,12.543,7.369h10.599c0.809,0,1.6,0.239,2.274,0.688l7.59,5.06
		c0.56,0.374,1.29,0.374,1.85,0l7.59-5.06c0.675-0.449,1.465-0.688,2.274-0.688h10.6c9.069,0,12.406-7.068,12.543-7.369
		c0.136-0.296,0.159-0.625,0.078-0.931c3.83-2.114,5.398-5.433,5.491-5.637c0.135-0.297,0.158-0.625,0.078-0.932
		c3.83-2.113,5.398-5.432,5.492-5.636C111.08,9.542,110.939,8.857,110.428,8.439 M30.137,17.488h24.305
		c0.197,0,0.357,0.16,0.357,0.357v3.065c0,0.197-0.16,0.357-0.357,0.357l-15.645-0.009C34.32,21.259,31.594,19.151,30.137,17.488
		 M35.706,24.057h20.669v-0.003c0.294,0.001,0.595-0.078,0.873-0.261l9.723-6.41c0.201-0.132,0.127-0.447-0.112-0.473
		c-0.345-0.037-0.695-0.058-1.046-0.058c-1.594,0-3.188,0.441-4.291,0.835c-0.313,0.112-0.612,0.259-0.89,0.442l-1.928,1.272
		c-0.083,0.055-0.193-0.005-0.193-0.104V17.29c0-0.244,0.144-0.464,0.366-0.564c1.014-0.454,3.976-1.653,6.936-1.653
		c2.086,0,4.172,0.595,5.578,1.105c0.199,0.072,0.228,0.341,0.05,0.457l-16.085,10.61c-0.578,0.381-1.254,0.584-1.946,0.584h-9.044
		C39.889,27.827,37.162,25.72,35.706,24.057 M87.141,27.827H77.063c-0.196,0-0.356-0.159-0.356-0.356v-3.058
		c0-0.197,0.16-0.357,0.356-0.357h18.736C94.342,25.721,91.614,27.827,87.141,27.827 M92.709,21.259l-17.785,0.012
		c-0.368-0.017-0.748,0.071-1.098,0.3l-10.085,6.57c-0.379,0.247-0.38,0.801-0.003,1.051l1.509,0.994
		c0.209,0.138,0.48,0.139,0.689,0.001l6.779-4.444c0.172-0.113,0.4,0.01,0.4,0.215v1.065c0,0.515-0.258,0.995-0.688,1.279
		l-5.772,3.805c-0.511,0.338-1.174,0.338-1.685,0l-4.819-3.177c-0.194-0.128-0.194-0.413,0-0.541l15.653-10.32
		c0.577-0.381,1.253-0.583,1.945-0.583h23.619C99.91,19.153,97.183,21.259,92.709,21.259"/>
</g>
</svg>
