<?xml version="1.0" encoding="utf-8"?>
<!-- Generator: Adobe Illustrator 17.0.0, SVG Export Plug-In . SVG Version: 6.00 Build 0)  -->
<!DOCTYPE svg PUBLIC "-//W3C//DTD SVG 1.1//EN" "http://www.w3.org/Graphics/SVG/1.1/DTD/svg11.dtd">
<svg version="1.1" id="Layer_1" xmlns="http://www.w3.org/2000/svg" xmlns:xlink="http://www.w3.org/1999/xlink" x="0px" y="0px"
	 width="225px" height="35.5px" viewBox="6.754 19.096 225 35.5" enable-background="new 6.754 19.096 225 35.5"
	 xml:space="preserve">
<g>
	<g>
		<path fill="#D2A056" d="M128.221,41.619c0.268,0,0.501,0.098,0.697,0.294c0.196,0.196,0.294,0.427,0.294,0.697v2.424
			c0,0.27-0.098,0.502-0.294,0.698s-0.429,0.293-0.697,0.293h-14.911c-0.269,0-0.501-0.097-0.697-0.293s-0.293-0.428-0.293-0.698
			v-2.497c0-0.294,0.048-0.533,0.147-0.717c0.098-0.183,0.221-0.36,0.367-0.532l7.571-8.206c0.615-0.667,0.141-1.746-0.766-1.746
			h-5.96c-0.269,0-0.501-0.097-0.697-0.294c-0.196-0.196-0.293-0.428-0.293-0.697v-2.424c0-0.27,0.097-0.501,0.293-0.698
			c0.196-0.195,0.428-0.293,0.697-0.293h13.809c0.269,0,0.501,0.098,0.697,0.293c0.196,0.197,0.294,0.428,0.294,0.698v2.497
			c0,0.221-0.055,0.441-0.165,0.662c-0.11,0.22-0.227,0.417-0.35,0.588l-7.569,8.205c-0.616,0.667-0.143,1.746,0.764,1.746H128.221z
			"/>
		<path fill="#D2A056" d="M131.966,36.478c0-1.372,0.208-2.663,0.624-3.875c0.417-1.211,1.015-2.264,1.799-3.158
			c0.783-0.892,1.731-1.596,2.846-2.111c1.114-0.515,2.356-0.772,3.728-0.772c1.371,0,2.613,0.251,3.727,0.753
			c1.114,0.502,2.063,1.175,2.846,2.02c0.784,0.844,1.39,1.836,1.818,2.974c0.428,1.138,0.643,2.332,0.643,3.581v1.653
			c0,0.269-0.098,0.502-0.294,0.697c-0.196,0.196-0.428,0.294-0.697,0.294H138.03c-0.758,0-1.307,0.806-0.947,1.474
			c0.003,0.004,0.004,0.009,0.006,0.012c0.233,0.429,0.546,0.79,0.938,1.084c0.391,0.293,0.844,0.513,1.358,0.661
			c0.514,0.147,1.04,0.221,1.58,0.221c0.783,0,1.419-0.08,1.909-0.239c0.49-0.159,0.894-0.36,1.212-0.606
			c0.269-0.196,0.489-0.331,0.662-0.404c0.17-0.074,0.404-0.11,0.697-0.11h2.938c0.269,0,0.508,0.097,0.716,0.293
			c0.208,0.197,0.299,0.428,0.276,0.697c-0.025,0.344-0.216,0.784-0.569,1.323c-0.356,0.539-0.887,1.065-1.597,1.58
			c-0.711,0.513-1.586,0.954-2.626,1.322c-1.041,0.367-2.246,0.551-3.617,0.551c-1.372,0-2.614-0.238-3.728-0.716
			c-1.115-0.478-2.063-1.156-2.846-2.039c-0.784-0.88-1.383-1.927-1.799-3.139C132.174,39.287,131.966,37.947,131.966,36.478
			 M140.964,30.969c-0.711,0-1.317,0.104-1.818,0.312c-0.501,0.208-0.924,0.478-1.268,0.809c-0.342,0.33-0.606,0.697-0.79,1.101
			c-0.183,0.404-0.299,0.79-0.348,1.157h8.299c-0.049-0.367-0.142-0.753-0.276-1.157c-0.135-0.404-0.356-0.771-0.661-1.101
			c-0.306-0.331-0.71-0.601-1.212-0.809C142.389,31.074,141.747,30.969,140.964,30.969"/>
		<path fill="#D2A056" d="M171.921,45.034c0,0.27-0.098,0.502-0.294,0.698c-0.196,0.196-0.428,0.293-0.697,0.293h-2.791
			c-0.27,0-0.502-0.097-0.698-0.293c-0.196-0.196-0.293-0.428-0.293-0.698v-9.328c0-1.469-0.343-2.643-1.028-3.526
			c-0.685-0.88-1.738-1.322-3.158-1.322c-1.298,0-2.319,0.441-3.066,1.322c-0.747,0.882-1.121,2.056-1.121,3.526v9.328
			c0,0.27-0.098,0.502-0.292,0.698c-0.197,0.196-0.429,0.293-0.698,0.293h-2.791c-0.27,0-0.502-0.097-0.697-0.293
			c-0.197-0.196-0.294-0.428-0.294-0.698V27.921c0-0.269,0.098-0.501,0.294-0.698c0.195-0.195,0.427-0.293,0.697-0.293h2.791
			c0.269,0,0.501,0.098,0.698,0.293c0.195,0.197,0.292,0.429,0.292,0.698v0.844c0.637-0.635,1.384-1.162,2.241-1.579
			c0.857-0.416,1.873-0.624,3.048-0.624c1.493,0,2.742,0.232,3.745,0.698c1.005,0.465,1.812,1.09,2.424,1.872
			c0.612,0.784,1.047,1.696,1.304,2.737c0.257,1.04,0.386,2.136,0.386,3.286V45.034z"/>
		<path fill="#D2A056" d="M183.048,39.122c0,0.759,0.202,1.365,0.606,1.818c0.404,0.453,1.157,0.679,2.258,0.679h2.241
			c0.269,0,0.501,0.098,0.698,0.294c0.195,0.196,0.292,0.428,0.292,0.697v2.424c0,0.27-0.098,0.502-0.292,0.698
			c-0.197,0.196-0.429,0.293-0.698,0.293h-2.717c-2.302,0-4.071-0.557-5.307-1.671c-1.236-1.113-1.854-2.822-1.854-5.123v-7.895
			h-2.424c-0.269,0-0.501-0.097-0.697-0.294c-0.196-0.195-0.293-0.428-0.293-0.697v-2.424c0-0.269,0.098-0.501,0.293-0.698
			c0.196-0.195,0.428-0.293,0.697-0.293h0.988c0.794,0,1.436-0.642,1.436-1.436v-4.55c0-0.269,0.098-0.501,0.294-0.697
			c0.195-0.196,0.428-0.294,0.697-0.294h2.791c0.27,0,0.501,0.098,0.697,0.294c0.196,0.196,0.294,0.428,0.294,0.697v5.986h4.738
			c0.268,0,0.5,0.098,0.697,0.293c0.195,0.197,0.292,0.429,0.292,0.698v2.424c0,0.269-0.097,0.502-0.292,0.697
			c-0.197,0.197-0.429,0.294-0.697,0.294h-3.697c-0.575,0-1.041,0.465-1.041,1.04V39.122z"/>
		<path fill="#D2A056" d="M191.787,36.478c0-1.372,0.208-2.663,0.624-3.875c0.417-1.211,1.015-2.264,1.799-3.158
			c0.784-0.892,1.732-1.596,2.846-2.111c1.115-0.515,2.356-0.772,3.728-0.772c1.371,0,2.613,0.251,3.728,0.753
			c1.114,0.502,2.062,1.175,2.846,2.02c0.783,0.844,1.389,1.836,1.818,2.974c0.427,1.138,0.642,2.332,0.642,3.581v1.653
			c0,0.269-0.098,0.502-0.293,0.697c-0.196,0.196-0.429,0.294-0.698,0.294h-10.976c-0.758,0-1.306,0.806-0.946,1.474
			c0.002,0.004,0.003,0.009,0.006,0.012c0.232,0.429,0.545,0.79,0.937,1.084c0.391,0.293,0.845,0.513,1.358,0.661
			c0.515,0.147,1.041,0.221,1.58,0.221c0.783,0,1.419-0.08,1.91-0.239c0.489-0.159,0.893-0.36,1.212-0.606
			c0.268-0.196,0.489-0.331,0.661-0.404c0.171-0.074,0.404-0.11,0.697-0.11h2.938c0.27,0,0.508,0.097,0.717,0.293
			c0.208,0.197,0.298,0.428,0.275,0.697c-0.025,0.344-0.215,0.784-0.569,1.323c-0.355,0.539-0.887,1.065-1.597,1.58
			c-0.71,0.513-1.586,0.954-2.626,1.322c-1.041,0.367-2.246,0.551-3.617,0.551c-1.372,0-2.613-0.238-3.728-0.716
			c-1.114-0.478-2.062-1.156-2.846-2.039c-0.784-0.88-1.383-1.927-1.799-3.139C191.995,39.287,191.787,37.947,191.787,36.478
			 M200.785,30.969c-0.711,0-1.317,0.104-1.818,0.312c-0.501,0.208-0.924,0.478-1.267,0.809c-0.343,0.33-0.606,0.697-0.79,1.101
			c-0.183,0.404-0.299,0.79-0.349,1.157h8.299c-0.049-0.367-0.141-0.753-0.276-1.157c-0.134-0.404-0.355-0.771-0.661-1.101
			c-0.306-0.331-0.71-0.601-1.211-0.809C202.211,31.074,201.568,30.969,200.785,30.969"/>
		<path fill="#D2A056" d="M217.677,35.192c-0.049,0.367-0.073,0.797-0.073,1.286c0,0.489,0.024,0.917,0.073,1.284
			c0.073,0.759,0.244,1.408,0.513,1.947c0.27,0.539,0.608,0.972,1.01,1.303c0.404,0.331,0.851,0.576,1.34,0.735
			c0.489,0.16,0.992,0.238,1.506,0.238c0.613,0,1.126-0.048,1.542-0.147c0.417-0.097,0.771-0.238,1.066-0.422
			c0.294-0.183,0.545-0.391,0.752-0.623c0.208-0.233,0.41-0.495,0.606-0.79c0.147-0.221,0.318-0.441,0.514-0.661
			c0.196-0.221,0.428-0.331,0.697-0.331h2.791c0.27,0,0.508,0.098,0.717,0.294c0.208,0.196,0.299,0.427,0.275,0.697
			c-0.024,0.514-0.208,1.138-0.55,1.872c-0.344,0.735-0.877,1.439-1.598,2.113c-0.723,0.673-1.647,1.242-2.772,1.708
			c-1.126,0.465-2.474,0.697-4.04,0.697c-1.347,0-2.559-0.227-3.635-0.679c-1.078-0.453-2.014-1.066-2.809-1.838
			c-0.797-0.77-1.421-1.663-1.874-2.68c-0.453-1.016-0.728-2.087-0.826-3.214c-0.048-0.44-0.073-0.93-0.073-1.468
			s0.025-1.041,0.073-1.507c0.075-1.125,0.343-2.203,0.809-3.231c0.464-1.028,1.088-1.927,1.872-2.698
			c0.784-0.771,1.72-1.383,2.81-1.836c1.089-0.453,2.307-0.681,3.654-0.681c1.566,0,2.914,0.233,4.04,0.698
			c1.126,0.465,2.049,1.034,2.772,1.708c0.722,0.674,1.255,1.377,1.598,2.112c0.342,0.734,0.526,1.358,0.55,1.873
			c0.025,0.269-0.067,0.501-0.275,0.697c-0.209,0.197-0.447,0.293-0.717,0.293h-2.791c-0.269,0-0.501-0.11-0.697-0.331
			c-0.196-0.22-0.367-0.44-0.514-0.66c-0.196-0.293-0.398-0.557-0.606-0.79c-0.208-0.233-0.459-0.44-0.752-0.624
			c-0.294-0.183-0.649-0.324-1.066-0.423c-0.417-0.097-0.93-0.147-1.542-0.147c-0.514,0-1.016,0.08-1.506,0.238
			c-0.489,0.16-0.937,0.404-1.34,0.735c-0.403,0.331-0.741,0.766-1.01,1.303C217.922,33.785,217.75,34.433,217.677,35.192"/>
	</g>
	<path fill="#D2A056" d="M99.976,24.719c-0.265-0.215-0.607-0.313-0.946-0.313H72.715c-3.263,0-6.082,1.917-7.398,4.683
		c-0.138,0.289,0.078,0.623,0.399,0.623h1.538c0.576,0,1.121-0.251,1.507-0.679c0.976-1.081,2.386-1.763,3.954-1.763h23.667
		c-1.498,1.714-4.306,3.881-8.91,3.881H65.8c-0.601,0-1.191-0.172-1.688-0.507c-1.668-1.125-5.06-2.858-10.109-2.858
		c-5.048,0-8.44,1.733-10.109,2.858c-0.497,0.335-1.086,0.507-1.687,0.507H20.534c-4.605,0-7.413-2.17-8.91-3.881h23.668
		c1.568,0,2.978,0.682,3.954,1.763c0.386,0.427,0.93,0.679,1.507,0.679h1.537c0.321,0,0.537-0.335,0.4-0.623
		c-1.317-2.766-4.137-4.683-7.398-4.683H8.978c-0.34,0-0.682,0.098-0.946,0.313c-0.526,0.43-0.671,1.135-0.406,1.716
		c0.097,0.21,1.709,3.625,5.65,5.8c-0.083,0.316-0.059,0.654,0.081,0.959c0.096,0.21,1.709,3.626,5.65,5.801
		c-0.083,0.315-0.059,0.654,0.081,0.958c0.141,0.31,3.575,7.583,12.907,7.583h10.906c0.832,0,1.647,0.246,2.34,0.708l7.811,5.207
		c0.576,0.385,1.328,0.385,1.904,0l7.81-5.207c0.694-0.462,1.508-0.708,2.34-0.708h10.907c9.332,0,12.767-7.273,12.907-7.583
		c0.14-0.304,0.163-0.643,0.081-0.958c3.941-2.176,5.555-5.591,5.65-5.801c0.139-0.305,0.162-0.643,0.08-0.959
		c3.941-2.175,5.555-5.59,5.651-5.8C100.646,25.854,100.502,25.15,99.976,24.719 M17.354,34.031h25.01
		c0.203,0,0.367,0.164,0.367,0.367v3.154c0,0.203-0.164,0.367-0.367,0.367l-16.099-0.009C21.658,37.911,18.853,35.742,17.354,34.031
		 M23.085,40.79h21.269v-0.003c0.302,0.001,0.613-0.081,0.898-0.269l10.005-6.597c0.207-0.136,0.131-0.46-0.115-0.487
		c-0.355-0.038-0.715-0.06-1.076-0.06c-1.641,0-3.281,0.454-4.415,0.859c-0.322,0.115-0.629,0.267-0.916,0.455l-1.983,1.309
		c-0.086,0.056-0.199-0.005-0.199-0.107v-2.065c0-0.251,0.148-0.478,0.376-0.58c1.043-0.467,4.091-1.701,7.137-1.701
		c2.147,0,4.293,0.613,5.74,1.137c0.205,0.074,0.234,0.351,0.051,0.47L43.304,44.07c-0.595,0.392-1.29,0.601-2.002,0.601h-9.307
		C27.389,44.67,24.582,42.502,23.085,40.79 M76.012,44.67h-10.37c-0.202,0-0.366-0.163-0.366-0.366v-3.147
		c0-0.203,0.164-0.367,0.366-0.367h19.279C83.422,42.503,80.616,44.67,76.012,44.67 M81.742,37.911l-18.301,0.013
		c-0.378-0.018-0.77,0.073-1.13,0.308l-10.377,6.761c-0.39,0.254-0.391,0.824-0.003,1.081l1.553,1.023
		c0.215,0.142,0.494,0.143,0.709,0.001l6.976-4.573c0.177-0.116,0.412,0.01,0.412,0.222v1.096c0,0.53-0.266,1.024-0.708,1.316
		l-5.94,3.916c-0.526,0.348-1.208,0.348-1.734,0l-4.959-3.269c-0.2-0.132-0.2-0.425,0-0.556l16.107-10.62
		c0.594-0.392,1.289-0.6,2.001-0.6h24.304C89.152,35.744,86.346,37.911,81.742,37.911"/>
</g>
</svg>
