<svg width="230" height="131" viewBox="0 0 230 131" fill="none" xmlns="http://www.w3.org/2000/svg">
<g clip-path="url(#clip0)">
<path d="M30.8381 120.495C31.3569 120.495 31.8099 120.686 32.1911 121.064C32.5703 121.441 32.7618 121.889 32.7618 122.411V127.093C32.7618 127.613 32.5703 128.063 32.1911 128.442C31.8119 128.82 31.3589 129.009 30.8381 129.009H1.92177C1.40091 129.009 0.949907 128.82 0.568747 128.442C0.189582 128.065 0 127.615 0 127.093V122.27C0 121.702 0.0937946 121.24 0.285373 120.885C0.476951 120.531 0.712431 120.189 0.997802 119.857L15.6795 104.006C16.8708 102.718 15.9529 100.633 14.1927 100.633H2.6342C2.11335 100.633 1.66234 100.444 1.28118 100.064C0.902013 99.6867 0.712431 99.2374 0.712431 98.7166V94.0353C0.712431 93.5145 0.902013 93.0673 1.28118 92.6856C1.66034 92.3079 2.11135 92.1191 2.6342 92.1191H29.4132C29.9341 92.1191 30.3851 92.3099 30.7662 92.6856C31.1454 93.0653 31.337 93.5125 31.337 94.0353V98.8578C31.337 99.2831 31.2292 99.7105 31.0157 100.136C30.8021 100.559 30.5766 100.941 30.3372 101.271L15.6595 117.12C14.4661 118.408 15.3821 120.493 17.1422 120.493H30.8381V120.495Z" fill="#412518"/>
<path d="M38.1001 110.564C38.1001 107.914 38.5032 105.42 39.3114 103.078C40.1196 100.738 41.2811 98.7047 42.8017 96.9773C44.3204 95.2539 46.1603 93.8942 48.3216 92.9003C50.4808 91.9044 52.8895 91.4094 55.5516 91.4094C58.2098 91.4094 60.6185 91.8945 62.7797 92.8645C64.9389 93.8346 66.7809 95.1346 68.2995 96.7666C69.8202 98.3966 70.9936 100.313 71.8258 102.511C72.6559 104.71 73.073 107.016 73.073 109.429V112.621C73.073 113.14 72.8814 113.591 72.5023 113.969C72.1231 114.347 71.6721 114.538 71.1493 114.538H49.8602C48.3894 114.538 47.3257 116.094 48.0222 117.386C48.0282 117.394 48.0302 117.404 48.0342 117.408C48.4872 118.237 49.0919 118.935 49.8522 119.503C50.6105 120.07 51.4886 120.495 52.4864 120.779C53.4842 121.064 54.5039 121.205 55.5496 121.205C57.0683 121.205 58.3016 121.05 59.2515 120.742C60.2034 120.435 60.9857 120.046 61.6023 119.571C62.1231 119.193 62.5522 118.931 62.8855 118.791C63.2167 118.648 63.6677 118.579 64.2385 118.579H69.9359C70.4568 118.579 70.9218 118.768 71.3249 119.145C71.728 119.525 71.9056 119.972 71.8597 120.493C71.8118 121.157 71.4406 122.008 70.7561 123.047C70.0656 124.089 69.0359 125.105 67.659 126.099C66.28 127.091 64.5837 127.941 62.5662 128.651C60.5466 129.361 58.2098 129.715 55.5516 129.715C52.8915 129.715 50.4828 129.253 48.3216 128.331C46.1603 127.409 44.3204 126.097 42.8017 124.393C41.2811 122.692 40.1196 120.67 39.3114 118.33C38.5032 115.991 38.1001 113.401 38.1001 110.564ZM55.5496 99.9212C54.1707 99.9212 52.9953 100.122 52.0234 100.524C51.0515 100.925 50.2313 101.446 49.5648 102.086C48.9023 102.724 48.3894 103.434 48.0322 104.213C47.677 104.992 47.4515 105.74 47.3577 106.449H63.4522C63.3564 105.74 63.1768 104.994 62.9174 104.213C62.656 103.434 62.2269 102.724 61.6362 102.086C61.0415 101.446 60.2593 100.925 59.2854 100.524C58.3135 100.124 57.0683 99.9212 55.5496 99.9212Z" fill="#412518"/>
<path d="M115.585 127.091C115.585 127.611 115.394 128.061 115.015 128.44C114.635 128.818 114.184 129.007 113.662 129.007H108.25C107.727 129.007 107.276 128.818 106.895 128.44C106.515 128.063 106.326 127.613 106.326 127.091V109.073C106.326 106.235 105.661 103.966 104.332 102.263C103.003 100.561 100.962 99.7106 98.2077 99.7106C95.6912 99.7106 93.7096 100.563 92.2628 102.263C90.814 103.968 90.0896 106.235 90.0896 109.073V127.091C90.0896 127.611 89.9 128.061 89.5228 128.44C89.1417 128.818 88.6906 129.007 88.1678 129.007H82.7537C82.2309 129.007 81.7799 128.818 81.4007 128.44C81.0195 128.063 80.83 127.613 80.83 127.091V94.0334C80.83 93.5145 81.0195 93.0653 81.4007 92.6836C81.7779 92.308 82.2289 92.1171 82.7537 92.1171H88.1658C88.6867 92.1171 89.1377 92.308 89.5208 92.6836C89.898 93.0633 90.0876 93.5126 90.0876 94.0334V95.6634C91.3228 94.4369 92.7717 93.4191 94.432 92.6141C96.0943 91.811 98.064 91.4075 100.343 91.4075C103.239 91.4075 105.659 91.8567 107.607 92.7572C109.555 93.6557 111.121 94.8623 112.307 96.373C113.492 97.8877 114.336 99.6489 114.835 101.661C115.334 103.67 115.583 105.787 115.583 108.01V127.091H115.585Z" fill="#412518"/>
<path d="M137.164 115.671C137.164 117.138 137.555 118.306 138.339 119.183C139.122 120.058 140.584 120.493 142.72 120.493H147.064C147.585 120.493 148.036 120.684 148.419 121.062C148.796 121.439 148.986 121.889 148.986 122.409V127.091C148.986 127.611 148.796 128.061 148.419 128.44C148.038 128.818 147.587 129.007 147.064 129.007H141.794C137.329 129.007 133.897 127.929 131.5 125.779C129.104 123.63 127.904 120.328 127.904 115.881V100.631H123.205C122.684 100.631 122.233 100.442 121.852 100.062C121.472 99.6847 121.283 99.2354 121.283 98.7146V94.0333C121.283 93.5145 121.472 93.0653 121.852 92.6836C122.231 92.3059 122.682 92.1171 123.205 92.1171H125.12C126.659 92.1171 127.904 90.8767 127.904 89.3441V80.554C127.904 80.0352 128.096 79.5859 128.475 79.2063C128.852 78.8286 129.305 78.6378 129.828 78.6378H135.24C135.763 78.6378 136.212 78.8286 136.593 79.2063C136.972 79.584 137.164 80.0332 137.164 80.554V92.1171H146.352C146.87 92.1171 147.321 92.3079 147.705 92.6836C148.082 93.0633 148.271 93.5125 148.271 94.0333V98.7146C148.271 99.2334 148.082 99.6847 147.705 100.062C147.323 100.442 146.872 100.631 146.352 100.631H139.181C138.066 100.631 137.162 101.529 137.162 102.641V115.671H137.164Z" fill="#412518"/>
<path d="M154.111 110.564C154.111 107.914 154.514 105.42 155.322 103.078C156.13 100.738 157.292 98.7047 158.812 96.9773C160.333 95.2539 162.171 93.8942 164.332 92.9003C166.493 91.9044 168.9 91.4094 171.562 91.4094C174.22 91.4094 176.629 91.8945 178.79 92.8645C180.949 93.8346 182.789 95.1346 184.31 96.7666C185.829 98.3966 187.002 100.313 187.836 102.511C188.664 104.71 189.081 107.016 189.081 109.429V112.621C189.081 113.14 188.89 113.591 188.513 113.969C188.134 114.347 187.681 114.538 187.158 114.538H165.871C164.4 114.538 163.338 116.094 164.035 117.386C164.039 117.394 164.041 117.404 164.047 117.408C164.498 118.237 165.102 118.935 165.863 119.503C166.621 120.07 167.501 120.495 168.497 120.779C169.497 121.064 170.516 121.205 171.56 121.205C173.079 121.205 174.312 121.05 175.264 120.742C176.214 120.435 176.996 120.046 177.615 119.571C178.134 119.193 178.565 118.931 178.896 118.791C179.229 118.648 179.678 118.579 180.249 118.579H185.946C186.469 118.579 186.932 118.768 187.337 119.145C187.74 119.525 187.916 119.972 187.87 120.493C187.822 121.157 187.453 122.008 186.767 123.047C186.078 124.089 185.046 125.105 183.669 126.099C182.292 127.091 180.594 127.941 178.577 128.651C176.557 129.361 174.22 129.715 171.562 129.715C168.902 129.715 166.495 129.253 164.332 128.331C162.173 127.409 160.333 126.097 158.812 124.393C157.292 122.692 156.13 120.67 155.322 118.33C154.514 115.991 154.111 113.401 154.111 110.564ZM171.56 99.9212C170.181 99.9212 169.006 100.122 168.034 100.524C167.062 100.925 166.242 101.446 165.577 102.086C164.913 102.724 164.402 103.434 164.045 104.213C163.689 104.992 163.464 105.74 163.368 106.449H179.463C179.367 105.74 179.189 104.994 178.928 104.213C178.668 103.434 178.239 102.724 177.647 102.086C177.052 101.446 176.27 100.925 175.298 100.524C174.326 100.124 173.079 99.9212 171.56 99.9212Z" fill="#412518"/>
<path d="M204.32 108.079C204.224 108.789 204.178 109.618 204.178 110.564C204.178 111.51 204.224 112.335 204.32 113.045C204.462 114.512 204.793 115.766 205.316 116.806C205.839 117.847 206.493 118.684 207.275 119.322C208.058 119.962 208.926 120.435 209.876 120.742C210.826 121.05 211.799 121.203 212.795 121.203C213.983 121.203 214.978 121.109 215.787 120.918C216.595 120.73 217.281 120.457 217.854 120.101C218.423 119.748 218.91 119.346 219.313 118.897C219.716 118.446 220.107 117.941 220.488 117.37C220.774 116.945 221.105 116.517 221.486 116.094C221.865 115.669 222.316 115.454 222.839 115.454H228.251C228.774 115.454 229.237 115.645 229.642 116.022C230.045 116.4 230.223 116.847 230.175 117.37C230.129 118.364 229.772 119.569 229.109 120.986C228.443 122.405 227.409 123.765 226.01 125.067C224.609 126.367 222.817 127.466 220.634 128.367C218.451 129.265 215.837 129.715 212.799 129.715C210.187 129.715 207.838 129.277 205.749 128.405C203.657 127.53 201.843 126.345 200.301 124.854C198.756 123.367 197.545 121.642 196.667 119.678C195.789 117.714 195.256 115.647 195.064 113.47C194.971 112.619 194.923 111.675 194.923 110.634C194.923 109.592 194.971 108.622 195.064 107.723C195.21 105.551 195.729 103.467 196.633 101.482C197.533 99.4958 198.744 97.7585 200.263 96.2696C201.781 94.7807 203.597 93.598 205.713 92.7234C207.826 91.8487 210.185 91.4094 212.799 91.4094C215.837 91.4094 218.451 91.8607 220.634 92.7591C222.817 93.6576 224.609 94.7569 226.01 96.0589C227.411 97.3609 228.443 98.7186 229.109 100.138C229.772 101.555 230.129 102.762 230.175 103.756C230.223 104.275 230.045 104.724 229.642 105.103C229.237 105.483 228.774 105.67 228.251 105.67H222.839C222.318 105.67 221.867 105.457 221.486 105.03C221.107 104.606 220.774 104.179 220.488 103.756C220.109 103.189 219.716 102.678 219.313 102.229C218.91 101.778 218.423 101.378 217.854 101.022C217.283 100.669 216.595 100.396 215.787 100.205C214.978 100.017 213.985 99.9212 212.795 99.9212C211.797 99.9212 210.824 100.076 209.876 100.382C208.926 100.691 208.06 101.162 207.275 101.802C206.495 102.442 205.839 103.283 205.316 104.318C204.793 105.362 204.462 106.612 204.32 108.079Z" fill="#412518"/>
<path d="M204.244 0.604294C203.731 0.188842 203.067 0 202.408 0H151.379C145.05 0 139.583 3.7013 137.032 9.04652C136.765 9.60311 137.184 10.2511 137.806 10.2511H140.79C141.907 10.2511 142.963 9.76611 143.711 8.94117C145.603 6.85198 148.339 5.53605 151.381 5.53605H197.277C194.372 8.84575 188.928 13.0341 179.997 13.0341H137.97C136.805 13.0341 135.661 12.7021 134.697 12.0541C131.462 9.8814 124.885 6.53393 115.092 6.53393C105.302 6.53393 98.7245 9.8814 95.4877 12.0541C94.5238 12.7001 93.3803 13.0341 92.2169 13.0341H50.1815C41.2511 13.0341 35.8051 8.84376 32.9015 5.53605H78.8004C81.8417 5.53605 84.5757 6.85198 86.4695 8.94117C87.2179 9.76611 88.2715 10.2511 89.3911 10.2511H92.3725C92.9951 10.2511 93.4142 9.6051 93.1488 9.04652C90.5944 3.70329 85.1245 0 78.8024 0H27.7708C27.1123 0 26.4497 0.19083 25.9349 0.604294C24.9151 1.4352 24.6337 2.79685 25.1486 3.91797C25.3362 4.32349 28.4633 10.921 36.1065 15.1213C35.9468 15.7315 35.9927 16.3835 36.2621 16.9739C36.4477 17.3794 39.5768 23.9789 47.22 28.1792C47.0603 28.7875 47.1062 29.4414 47.3756 30.0298C47.649 30.6282 54.3084 44.678 72.4065 44.678H93.5579C95.1723 44.678 96.7509 45.1531 98.0959 46.0456L113.243 56.1039C114.36 56.8474 115.817 56.8474 116.934 56.1039L132.081 46.0456C133.428 45.1531 135.005 44.678 136.619 44.678H157.772C175.871 44.678 182.53 30.6282 182.803 30.0298C183.075 29.4414 183.121 28.7875 182.959 28.1792C190.602 23.977 193.731 17.3794 193.917 16.9739C194.186 16.3835 194.232 15.7315 194.072 15.1213C201.716 10.921 204.845 4.32349 205.032 3.91797C205.545 2.79685 205.264 1.4352 204.244 0.604294ZM44.015 18.592H92.5182C92.9113 18.592 93.2306 18.91 93.2306 19.3016V25.3943C93.2306 25.7859 92.9113 26.1039 92.5182 26.1039L61.297 26.086C52.3626 26.088 46.9226 21.8977 44.015 18.592ZM55.1286 31.6499H96.3757V31.6439C96.9624 31.6459 97.5631 31.4889 98.1179 31.1251L117.521 18.3833C117.922 18.1209 117.775 17.4947 117.298 17.443C116.609 17.3695 115.911 17.3277 115.21 17.3277C112.029 17.3277 108.848 18.2044 106.647 18.9876C106.022 19.2102 105.426 19.5024 104.871 19.8662L101.023 22.3947C100.858 22.504 100.638 22.3847 100.638 22.1879V18.1984C100.638 17.7134 100.926 17.2761 101.369 17.0773C103.392 16.1748 109.303 13.7914 115.21 13.7914C119.373 13.7914 123.536 14.9742 126.342 15.988C126.739 16.1311 126.797 16.6658 126.441 16.8964L94.3422 37.987C93.1887 38.7444 91.8397 39.1479 90.4587 39.1479H72.4105C63.4762 39.1439 58.0342 34.9556 55.1286 31.6499ZM157.772 39.1439H137.661C137.27 39.1439 136.95 38.8279 136.95 38.4363V32.3576C136.95 31.966 137.27 31.6479 137.661 31.6479H175.05C172.143 34.9576 166.699 39.1439 157.772 39.1439ZM168.884 26.088L133.392 26.1119C132.658 26.0781 131.899 26.253 131.201 26.7082L111.075 39.7681C110.319 40.2591 110.317 41.3604 111.069 41.8573L114.081 43.8332C114.498 44.1075 115.039 44.1095 115.456 43.8352L128.984 35.0014C129.327 34.7767 129.782 35.0212 129.782 35.4287V37.5457C129.782 38.5695 129.267 39.5236 128.409 40.0882L116.891 47.6518C115.871 48.3236 114.548 48.3236 113.528 47.6518L103.911 41.3365C103.524 41.0821 103.524 40.5155 103.911 40.2611L135.148 19.7469C136.3 18.9895 137.649 18.588 139.03 18.588H186.164C183.254 21.9017 177.812 26.088 168.884 26.088Z" fill="#412518"/>
</g>
<defs>
<clipPath id="clip0">
<rect width="230" height="131" fill="white"/>
</clipPath>
</defs>
</svg>
